<svg width="1300" height="1300" viewBox="0 0 1300 1300" fill="none" xmlns="http://www.w3.org/2000/svg">
<path d="M650 1300C290.71 1300 0 1008.86 0 650C0 290.71 291.141 0 650 0C1009.29 0 1300 291.141 1300 650C1300.43 1009.29 1009.29 1300 650 1300Z" fill="#B5E2DC"/>
<mask id="mask0_26_635" style="mask-type:alpha" maskUnits="userSpaceOnUse" x="0" y="0" width="1301" height="1300">
<path d="M650 1300C290.71 1300 0 1008.86 0 650C0 290.71 291.141 0 650 0C1009.29 0 1300 291.141 1300 650C1300.43 1009.29 1009.29 1300 650 1300Z" fill="#F7C0B5"/>
</mask>
<g mask="url(#mask0_26_635)">
<path d="M1014.87 1197.33C1011.83 1199.5 1008.37 1201.66 1005.33 1203.83C1001.87 1206 998.832 1208.16 995.366 1209.9C992.332 1211.63 989.732 1213.36 986.699 1215.1C986.266 1215.53 985.832 1215.53 985.399 1215.96C975.432 1222.03 965.032 1227.66 954.632 1232.86C951.599 1234.6 948.132 1236.33 945.099 1237.63C945.099 1237.63 944.666 1238.06 944.232 1238.06C940.766 1239.8 937.299 1241.53 933.832 1243.26C926.899 1246.73 919.532 1249.76 912.599 1252.8C909.132 1254.53 905.232 1255.83 901.766 1257.13C898.299 1258.43 894.399 1260.16 890.932 1261.46C887.466 1262.76 883.566 1264.5 880.099 1265.8C880.099 1265.8 880.099 1265.8 879.666 1265.8C876.199 1267.1 872.299 1268.4 868.832 1269.7C861.032 1272.3 852.799 1274.9 844.999 1277.5C842.399 1278.36 839.366 1279.23 836.766 1280.1C828.532 1282.7 820.299 1284.86 812.066 1286.6C809.032 1287.46 805.999 1287.9 802.532 1288.76C794.732 1290.5 786.499 1292.23 778.699 1293.96C776.966 1294.4 775.666 1294.4 773.932 1294.83C771.332 1295.26 768.299 1295.7 765.699 1296.13C761.799 1296.56 758.332 1297.43 754.432 1297.86C752.699 1298.3 750.966 1298.3 749.232 1298.73C747.066 1299.16 744.466 1299.6 741.866 1299.6C734.932 1300.46 727.566 1301.33 720.632 1302.2C718.466 1302.63 715.866 1302.63 713.699 1303.06H713.266C710.232 1303.5 707.199 1303.5 704.166 1303.93C701.132 1304.36 698.099 1304.36 695.066 1304.36C693.332 1304.36 691.166 1304.8 689.432 1304.8C685.966 1304.8 682.932 1305.23 679.899 1305.23C675.566 1305.23 671.666 1305.66 667.332 1305.66C662.999 1305.66 659.099 1305.66 654.766 1305.66C651.732 1305.66 648.699 1305.66 645.666 1305.66C463.232 1303.06 298.566 1225.5 181.566 1102.43C181.566 1102.43 181.566 1102 181.132 1102C194.566 1075.56 244.399 1027.9 296.399 988.465C362.266 938.632 455.432 907.865 455.432 907.865C455.432 907.865 516.532 897.898 743.166 945.132C916.066 981.532 989.732 1129.3 1014.87 1197.33Z" fill="#AD827B"/>
<path d="M791.266 1065.16C782.166 1109.8 723.233 1136.23 623.999 1096.36C502.233 1046.96 455.433 907.865 455.433 907.865C448.933 808.198 433.766 722.832 433.766 722.832C574.599 710.698 740.999 875.365 740.999 875.365L760.066 956.832C761.799 963.765 765.266 969.832 770.466 974.165C779.566 989.765 797.333 1036.56 791.266 1065.16Z" fill="#AD827B"/>
<path d="M770.466 974.599C687.699 970.265 626.599 958.132 561.166 840.699C616.632 889.665 682.066 908.299 750.966 916.965L760.066 956.832C761.799 964.199 765.266 970.265 770.466 974.599Z" fill="#8E5650"/>
<path d="M941.632 452.432C949.432 488.832 953.332 518.298 932.099 615.365C910.866 712.432 951.599 809.498 849.332 898.332C780.432 958.132 659.966 969.398 563.766 903.965C531.266 881.865 501.366 851.098 477.099 810.798C458.032 779.165 435.932 749.265 411.232 721.965C376.999 684.698 335.832 609.732 356.199 477.132C389.132 261.332 602.766 236.632 728.866 260.465C854.966 284.298 920.399 356.232 941.632 452.432Z" fill="#AD827B"/>
<path d="M526.932 621.865C526.932 621.865 513.499 556.865 450.232 564.665C395.632 571.598 376.566 702.465 500.499 738.865" fill="#AD827B"/>
<path d="M496.6 679.498C496.6 679.498 481 669.532 482.733 652.198C485.333 631.832 482.733 619.265 473.2 615.365C449.366 605.398 444.6 633.132 445.466 636.598" stroke="#423232" stroke-width="13" stroke-miterlimit="10" stroke-linecap="round" stroke-linejoin="round"/>
<path d="M827.232 721.532C827.232 721.532 843.699 722.398 859.299 703.765C867.965 693.365 875.332 680.365 870.565 676.465C865.799 672.132 787.365 684.265 782.165 694.665C776.965 705.065 807.299 721.532 827.232 721.532Z" fill="#8E605C"/>
<path d="M840.233 575.932C840.233 575.932 841.099 617.098 867.533 663.032C879.233 683.398 861.466 716.765 822.899 722.398" stroke="#423232" stroke-width="13" stroke-miterlimit="10" stroke-linecap="round" stroke-linejoin="round"/>
<path d="M907.837 1029.6C907.837 1029.6 840.67 966.767 774.37 951.6C774.37 951.6 782.17 1063.4 703.303 1055.17C575.903 1041.73 455.87 906.534 455.87 906.534C455.87 906.534 372.237 929.934 304.637 981.5C304.637 981.5 313.737 1114.53 465.837 1180.4C617.937 1246.27 829.837 1213.77 880.103 1171.3C930.37 1128.83 920.403 1043.47 907.837 1029.6Z" fill="white"/>
<path d="M267.37 1010.1C267.37 1010.1 183.303 1056.47 137.37 1188.63C91.4366 1320.8 92.7366 1517.53 92.7366 1517.53H1081.6C1081.6 1517.53 1053.87 1192.97 955.937 1084.63C955.937 1084.63 962.437 1181.7 770.47 1191.67C578.503 1201.63 347.537 1140.53 341.903 1105C336.703 1068.6 267.37 1010.1 267.37 1010.1Z" fill="white"/>
<path d="M996.236 1525.33C724.103 1651 276.036 1537.47 276.036 1537.47C276.036 1537.47 266.936 1426.97 299.87 1228.07C301.17 1218.97 302.47 1209.87 303.336 1201.63C312.87 1111.5 290.77 1049.53 267.37 1010.53C267.37 1000.57 277.77 993.634 289.47 983.667C294.236 979.767 379.603 926.9 383.07 929.5C389.136 938.167 394.77 946.834 399.536 955.934C448.07 1045.63 464.97 1141.83 565.936 1155.7C665.603 1169.57 761.803 1167.4 830.703 1152.23C897.003 1137.5 852.803 1027.43 823.336 973.267C822.036 971.1 822.036 970.234 820.736 969.367C830.703 962.867 946.403 1051.7 955.503 1084.63C974.57 1132.3 979.77 1167.83 985.403 1214.2C1004.04 1366.3 996.236 1525.33 996.236 1525.33Z" fill="#77A0E0"/>
<path d="M401.269 1152.67C416.586 1152.67 429.003 1140.25 429.003 1124.93C429.003 1109.62 416.586 1097.2 401.269 1097.2C385.953 1097.2 373.536 1109.62 373.536 1124.93C373.536 1140.25 385.953 1152.67 401.269 1152.67Z" fill="#647184"/>
<path d="M918.237 1164.37C932.118 1164.37 943.37 1153.11 943.37 1139.23C943.37 1125.35 932.118 1114.1 918.237 1114.1C904.356 1114.1 893.104 1125.35 893.104 1139.23C893.104 1153.11 904.356 1164.37 918.237 1164.37Z" fill="#647184"/>
<path d="M594.97 1203.8C660.836 1207.7 743.17 1209 812.07 1199.03C858.436 1192.53 900.47 1226.77 903.936 1273.13C906.97 1319.07 908.27 1374.97 900.903 1423.93C885.736 1529.67 507.436 1524.47 501.37 1431.3C497.903 1383.2 494.87 1344.2 491.403 1312.13C484.903 1251.9 534.303 1200.33 594.97 1203.8Z" stroke="#647184" stroke-width="13" stroke-miterlimit="10"/>
<path d="M721.07 1054.73C721.07 1054.73 641.77 1150.93 617.504 1143.57C593.237 1136.2 442.437 1056.03 418.604 919.1C418.604 919.1 437.237 888.767 453.704 879.234C453.704 879.234 499.204 959.4 581.537 1007.5C659.97 1053 721.07 1054.73 721.07 1054.73Z" fill="white"/>
<path d="M721.07 1054.73C721.07 1054.73 641.77 1150.93 617.504 1143.57C593.237 1136.2 442.437 1056.03 418.604 919.1" stroke="#D0D6DD" stroke-width="13" stroke-miterlimit="10" stroke-linecap="round" stroke-linejoin="round"/>
<path d="M721.069 1054.73C721.069 1054.73 782.603 1126.67 802.969 1127.53C823.336 1128.4 832.003 1001.87 770.903 937.734C770.903 937.734 761.369 940.334 757.469 941.2C757.036 940.767 787.803 1033.07 721.069 1054.73Z" fill="white"/>
<path d="M721.069 1054.73C721.069 1054.73 782.603 1126.67 802.969 1127.53C823.336 1128.4 832.003 1001.87 770.903 937.734" stroke="#D0D6DD" stroke-width="13" stroke-miterlimit="10" stroke-linecap="round" stroke-linejoin="round"/>
<path d="M715.003 1061.67C715.003 1061.67 702.869 1075.1 707.203 1104.57C711.536 1133.6 710.669 1162.63 710.669 1162.63" stroke="#D0D6DD" stroke-width="13" stroke-miterlimit="10" stroke-linecap="round" stroke-linejoin="round"/>
<path d="M737.103 1126.67C742.608 1126.67 747.07 1122.2 747.07 1116.7C747.07 1111.2 742.608 1106.73 737.103 1106.73C731.599 1106.73 727.137 1111.2 727.137 1116.7C727.137 1122.2 731.599 1126.67 737.103 1126.67Z" fill="#D0D6DD"/>
<path d="M745.802 526.549C755.216 527.849 762.491 517.882 759.068 508.349C757.356 503.149 754.36 498.382 749.653 495.349C735.104 486.249 680.759 485.382 652.088 506.182C626.841 525.249 703.01 520.482 745.802 526.549Z" fill="#423232"/>
<path d="M864.333 531.316C856.631 531.316 851.924 521.349 855.775 513.116C857.915 508.782 860.91 504.882 865.189 502.716C878.455 496.216 913.972 500.116 929.805 522.216C943.926 541.716 899.851 530.882 864.333 531.316Z" fill="#423232"/>
<path d="M730.824 581.149C703.437 567.282 660.218 577.682 660.218 577.682" stroke="#423232" stroke-width="13" stroke-miterlimit="10" stroke-linecap="round" stroke-linejoin="round"/>
<path d="M899.854 589.816C899.854 589.816 888.728 577.683 847.648 587.216" stroke="#423232" stroke-width="13" stroke-miterlimit="10" stroke-linecap="round" stroke-linejoin="round"/>
<path d="M809.297 750.856C809.297 750.856 820.564 744.789 826.631 755.189C832.697 765.589 817.964 777.289 817.964 777.289C817.964 777.289 834.431 789.423 823.164 804.589C814.064 816.723 800.198 815.856 800.198 815.856" stroke="#423232" stroke-width="13" stroke-miterlimit="10" stroke-linecap="round" stroke-linejoin="round"/>
<path d="M1052.43 935.089C1028.17 881.356 1009.53 888.722 1026.43 840.189C1043.33 792.089 1021.67 757.856 977.034 712.356C934.568 669.022 930.234 621.789 931.534 614.856C927.634 633.056 925.901 651.689 925.034 669.889C923.734 694.156 924.168 717.989 922.434 741.822C918.968 795.122 906.401 847.556 849.201 896.956C824.068 918.622 792.001 934.222 756.468 941.589C746.934 970.622 761.234 991.422 792.434 994.889C823.634 998.356 836.634 1045.16 907.268 1067.26C1013 1101.49 1076.7 988.822 1052.43 935.089Z" fill="#423232"/>
<path d="M854.835 410.756C863.935 415.522 871.735 411.189 876.501 401.656C926.768 393.856 938.468 494.389 940.201 500.456C941.935 506.956 942.801 525.156 939.335 574.989C937.168 602.722 1098.37 405.989 951.035 322.789C961.868 306.756 954.068 227.022 863.501 207.522C831.001 200.589 788.535 230.922 735.235 219.222C526.801 172.856 310.568 217.056 327.468 492.222C331.368 552.456 335.268 617.456 233.001 660.789C114.268 711.056 120.335 842.356 203.968 869.222C238.635 880.489 124.235 958.489 190.968 1027.82C225.635 1064.22 287.601 990.556 350.435 1030.42C445.335 1090.66 492.568 1063.36 511.201 1039.52C549.335 990.989 502.101 893.489 502.101 893.489C502.101 893.489 520.735 863.589 526.801 847.556C556.268 768.689 486.068 733.156 486.068 733.156C377.735 691.556 397.235 570.656 450.101 563.722C505.568 556.789 522.901 606.189 525.935 618.322C525.935 618.322 574.901 685.922 669.368 531.656C762.968 377.389 814.101 388.656 854.835 410.756Z" fill="#423232"/>
<path d="M877.818 658.314C866.118 644.014 850.951 634.047 832.751 633.614C813.685 633.181 783.785 637.514 753.885 661.347C714.885 692.547 636.885 687.781 606.118 684.747C597.451 683.881 589.218 688.214 585.318 696.014C576.651 713.347 564.951 749.314 570.585 807.381C577.951 886.681 642.518 958.614 733.518 952.547C853.118 945.181 922.885 848.981 927.218 720.281C926.351 684.747 905.118 692.114 877.818 658.314Z" fill="white"/>
<path d="M717.919 684.748C717.919 684.748 900.352 767.081 915.952 707.281" stroke="#EDF3F4" stroke-width="13" stroke-miterlimit="10" stroke-linecap="round" stroke-linejoin="round"/>
<path d="M644.252 743.682C644.252 743.682 828.419 848.982 911.185 791.782" stroke="#EDF3F4" stroke-width="13" stroke-miterlimit="10" stroke-linecap="round" stroke-linejoin="round"/>
<path d="M637.752 818.215C637.752 818.215 732.652 903.581 869.152 872.815" stroke="#EDF3F4" stroke-width="13" stroke-miterlimit="10" stroke-linecap="round" stroke-linejoin="round"/>
<path d="M662.885 692.114C662.885 692.114 644.685 717.247 637.319 783.547C628.652 863.281 666.352 929.581 666.352 929.581" stroke="#EDF3F4" stroke-width="13" stroke-miterlimit="10" stroke-linecap="round" stroke-linejoin="round"/>
<path d="M602.651 695.581C602.651 695.581 552.818 660.914 517.718 601.114" stroke="white" stroke-width="13" stroke-miterlimit="10" stroke-linecap="round" stroke-linejoin="round"/>
<path d="M492.152 735.881C502.118 768.381 526.818 821.248 589.218 868.915" stroke="white" stroke-width="13" stroke-miterlimit="10" stroke-linecap="round" stroke-linejoin="round"/>
</g>
</svg>
