<svg width="1300" height="1300" viewBox="0 0 1300 1300" fill="none" xmlns="http://www.w3.org/2000/svg">
<path d="M650 1300C290.71 1300 0 1008.86 0 650C0 290.71 291.141 0 650 0C1009.29 0 1300 291.141 1300 650C1300.43 1009.29 1009.29 1300 650 1300Z" fill="#B5E2DC"/>
<mask id="mask0_26_635" style="mask-type:alpha" maskUnits="userSpaceOnUse" x="0" y="0" width="1301" height="1300">
<path d="M650 1300C290.71 1300 0 1008.86 0 650C0 290.71 291.141 0 650 0C1009.29 0 1300 291.141 1300 650C1300.43 1009.29 1009.29 1300 650 1300Z" fill="#F7C0B5"/>
</mask>
<g mask="url(#mask0_26_635)">
<path d="M1014.87 1197.33C1011.83 1199.5 1008.37 1201.66 1005.33 1203.83C1001.87 1206 998.832 1208.16 995.366 1209.9C992.332 1211.63 989.732 1213.36 986.699 1215.1C986.266 1215.53 985.832 1215.53 985.399 1215.96C975.432 1222.03 965.032 1227.66 954.632 1232.86C951.599 1234.6 948.132 1236.33 945.099 1237.63C945.099 1237.63 944.666 1238.06 944.232 1238.06C940.766 1239.8 937.299 1241.53 933.832 1243.26C926.899 1246.73 919.532 1249.76 912.599 1252.8C909.132 1254.53 905.232 1255.83 901.766 1257.13C898.299 1258.43 894.399 1260.16 890.932 1261.46C887.466 1262.76 883.566 1264.5 880.099 1265.8C880.099 1265.8 880.099 1265.8 879.666 1265.8C876.199 1267.1 872.299 1268.4 868.832 1269.7C861.032 1272.3 852.799 1274.9 844.999 1277.5C842.399 1278.36 839.366 1279.23 836.766 1280.1C828.532 1282.7 820.299 1284.86 812.066 1286.6C809.032 1287.46 805.999 1287.9 802.532 1288.76C794.732 1290.5 786.499 1292.23 778.699 1293.96C776.966 1294.4 775.666 1294.4 773.932 1294.83C771.332 1295.26 768.299 1295.7 765.699 1296.13C761.799 1296.56 758.332 1297.43 754.432 1297.86C752.699 1298.3 750.966 1298.3 749.232 1298.73C747.066 1299.16 744.466 1299.6 741.866 1299.6C734.932 1300.46 727.566 1301.33 720.632 1302.2C718.466 1302.63 715.866 1302.63 713.699 1303.06H713.266C710.232 1303.5 707.199 1303.5 704.166 1303.93C701.132 1304.36 698.099 1304.36 695.066 1304.36C693.332 1304.36 691.166 1304.8 689.432 1304.8C685.966 1304.8 682.932 1305.23 679.899 1305.23C675.566 1305.23 671.666 1305.66 667.332 1305.66C662.999 1305.66 659.099 1305.66 654.766 1305.66C651.732 1305.66 648.699 1305.66 645.666 1305.66C463.232 1303.06 298.566 1225.5 181.566 1102.43C181.566 1102.43 181.566 1102 181.132 1102C194.566 1075.56 244.399 1027.9 296.399 988.465C362.266 938.632 455.432 907.865 455.432 907.865C455.432 907.865 516.532 897.898 743.166 945.132C916.066 981.532 989.732 1129.3 1014.87 1197.33Z" fill="#AD827B"/>
<path d="M791.266 1065.16C782.166 1109.8 723.233 1136.23 623.999 1096.36C502.233 1046.96 455.433 907.865 455.433 907.865C448.933 808.198 433.766 722.832 433.766 722.832C574.599 710.698 740.999 875.365 740.999 875.365L760.066 956.832C761.799 963.765 765.266 969.832 770.466 974.165C779.566 989.765 797.333 1036.56 791.266 1065.16Z" fill="#AD827B"/>
<path d="M770.466 974.599C687.699 970.265 626.599 958.132 561.166 840.699C616.632 889.665 682.066 908.299 750.966 916.965L760.066 956.832C761.799 964.199 765.266 970.265 770.466 974.599Z" fill="#8E5650"/>
<path d="M941.632 452.432C949.432 488.832 953.332 518.298 932.099 615.365C910.866 712.432 951.599 809.498 849.332 898.332C780.432 958.132 659.966 969.398 563.766 903.965C531.266 881.865 501.366 851.098 477.099 810.798C458.032 779.165 435.932 749.265 411.232 721.965C376.999 684.698 335.832 609.732 356.199 477.132C389.132 261.332 602.766 236.632 728.866 260.465C854.966 284.298 920.399 356.232 941.632 452.432Z" fill="#AD827B"/>
<path d="M526.932 621.865C526.932 621.865 513.499 556.865 450.232 564.665C395.632 571.598 376.566 702.465 500.499 738.865" fill="#AD827B"/>
<path d="M496.6 679.498C496.6 679.498 481 669.532 482.733 652.198C485.333 631.832 482.733 619.265 473.2 615.365C449.366 605.398 444.6 633.132 445.466 636.598" stroke="#423232" stroke-width="13" stroke-miterlimit="10" stroke-linecap="round" stroke-linejoin="round"/>
<path d="M827.232 721.532C827.232 721.532 843.699 722.398 859.299 703.765C867.965 693.365 875.332 680.365 870.565 676.465C865.799 672.132 787.365 684.265 782.165 694.665C776.965 705.065 807.299 721.532 827.232 721.532Z" fill="#8E605C"/>
<path d="M840.233 575.932C840.233 575.932 841.099 617.098 867.533 663.032C879.233 683.398 861.466 716.765 822.899 722.398" stroke="#423232" stroke-width="13" stroke-miterlimit="10" stroke-linecap="round" stroke-linejoin="round"/>
<path d="M1057.78 1116.61C996.25 1037.31 900.917 1004.37 848.483 984.873C844.15 963.206 835.917 939.373 822.917 916.406C802.983 928.54 780.017 937.64 756.184 942.406L759.65 956.706C761.383 963.64 770.05 995.706 756.617 1036.87C745.35 1071.54 699.85 1087.14 622.717 1052.04C472.35 984.006 455.017 907.306 455.017 907.306C452.417 865.706 448.084 826.706 444.184 795.073C397.384 805.473 343.217 826.706 313.75 871.34C277.35 925.94 263.917 981.406 267.384 1025.61C204.117 1065.91 106.184 1127.01 74.1168 1236.21C32.5168 1378.34 39.4502 1465.44 39.4502 1465.44H1159.18C1157.88 1465.87 1141.42 1224.51 1057.78 1116.61Z" fill="#6060D8"/>
<path d="M388.283 974.473C388.283 974.473 414.716 1077.17 530.416 1148.24" stroke="#423232" stroke-width="13" stroke-miterlimit="10" stroke-linecap="round" stroke-linejoin="round"/>
<path d="M848.05 984.873C848.05 984.873 878.817 1117.91 811.65 1179.01" stroke="#423232" stroke-width="13" stroke-miterlimit="10" stroke-linecap="round" stroke-linejoin="round"/>
<path d="M639.183 1158.64C639.183 1158.64 616.65 1224.51 622.717 1270.01" stroke="#423232" stroke-width="13" stroke-miterlimit="10" stroke-linecap="round" stroke-linejoin="round"/>
<path d="M777.417 1154.74C777.417 1154.74 794.318 1191.57 806.451 1250.07" stroke="#423232" stroke-width="13" stroke-miterlimit="10" stroke-linecap="round" stroke-linejoin="round"/>
<path d="M266.517 1026.04C266.517 1026.04 302.05 1170.77 513.517 1213.24" stroke="#423232" stroke-width="13" stroke-miterlimit="10" stroke-linecap="round" stroke-linejoin="round"/>
<path d="M626.617 1279.97L607.55 1278.24C600.617 1277.37 595.417 1270.87 596.717 1263.94L603.217 1231.44C604.95 1222.34 613.617 1215.84 622.717 1217.14C631.817 1218.01 639.183 1225.81 639.183 1235.34L639.617 1268.71C639.617 1275.21 633.55 1280.84 626.617 1279.97Z" fill="white"/>
<path d="M825.517 1260.04L807.317 1266.54C800.384 1269.14 793.017 1264.81 791.717 1257.87L783.917 1225.81C781.75 1216.71 786.517 1207.61 795.617 1204.14C804.284 1201.11 814.25 1205.01 818.15 1213.24L832.45 1243.14C835.484 1249.64 832.45 1257.44 825.517 1260.04Z" fill="white"/>
<path d="M1016.62 1250.07C1016.62 1250.07 1040.88 1386.14 1031.35 1465.87" stroke="#544D4D" stroke-width="13" stroke-miterlimit="10" stroke-linecap="round" stroke-linejoin="round"/>
<path d="M745.802 526.549C755.216 527.849 762.491 517.882 759.068 508.349C757.356 503.149 754.36 498.382 749.653 495.349C735.104 486.249 680.759 485.382 652.088 506.182C626.841 525.249 703.01 520.482 745.802 526.549Z" fill="#423232"/>
<path d="M864.333 531.316C856.631 531.316 851.924 521.349 855.775 513.116C857.915 508.782 860.91 504.882 865.189 502.716C878.455 496.216 913.972 500.116 929.805 522.216C943.926 541.716 899.851 530.882 864.333 531.316Z" fill="#423232"/>
<path d="M730.824 581.149C703.437 567.282 660.218 577.682 660.218 577.682" stroke="#423232" stroke-width="13" stroke-miterlimit="10" stroke-linecap="round" stroke-linejoin="round"/>
<path d="M899.854 589.816C899.854 589.816 888.728 577.683 847.648 587.216" stroke="#423232" stroke-width="13" stroke-miterlimit="10" stroke-linecap="round" stroke-linejoin="round"/>
<path d="M809.297 750.856C809.297 750.856 820.564 744.789 826.631 755.189C832.697 765.589 817.964 777.289 817.964 777.289C817.964 777.289 834.431 789.423 823.164 804.589C814.064 816.723 800.198 815.856 800.198 815.856" stroke="#423232" stroke-width="13" stroke-miterlimit="10" stroke-linecap="round" stroke-linejoin="round"/>
<path d="M939.689 578.56C951.389 512.694 947.922 486.694 940.989 455.927C938.822 446.394 936.222 437.294 933.189 428.194C905.889 416.06 883.355 449.86 846.089 444.66C746.855 431.227 671.022 388.76 587.389 406.96C534.955 418.227 526.289 465.46 541.455 552.56C545.789 576.394 545.789 599.36 525.422 623.194C521.955 611.06 505.055 561.66 449.589 568.594C397.155 575.094 377.222 696.427 485.555 738.027C484.689 761.86 462.589 806.06 444.822 816.027C444.822 816.027 441.789 784.394 407.122 742.794C372.455 701.194 303.122 593.294 349.922 435.56C396.722 277.827 608.622 195.494 805.789 275.66C839.589 289.527 867.322 309.027 889.422 329.394C941.422 377.06 969.155 446.394 960.922 516.16C959.189 539.56 952.689 562.094 939.689 578.56Z" fill="#423232"/>
<path d="M496.388 305.56C496.388 305.56 508.955 166.46 433.555 149.56C358.155 132.66 384.155 214.993 407.555 266.56C407.555 266.56 317.422 185.96 277.988 240.56C240.288 292.993 334.755 350.193 334.755 350.193C334.755 350.193 194.788 361.46 224.255 441.193C254.155 520.927 407.555 416.927 407.555 416.927C407.555 416.927 495.955 335.46 496.388 305.56Z" fill="#423232"/>
<path d="M877.818 658.314C866.118 644.014 850.951 634.047 832.751 633.614C813.685 633.181 783.785 637.514 753.885 661.347C714.885 692.547 636.885 687.781 606.118 684.747C597.451 683.881 589.218 688.214 585.318 696.014C576.651 713.347 564.951 749.314 570.585 807.381C577.951 886.681 642.518 958.614 733.518 952.547C853.118 945.181 922.885 848.981 927.218 720.281C926.351 684.747 905.118 692.114 877.818 658.314Z" fill="white"/>
<path d="M717.919 684.748C717.919 684.748 900.352 767.081 915.952 707.281" stroke="#EDF3F4" stroke-width="13" stroke-miterlimit="10" stroke-linecap="round" stroke-linejoin="round"/>
<path d="M644.252 743.682C644.252 743.682 828.419 848.982 911.185 791.782" stroke="#EDF3F4" stroke-width="13" stroke-miterlimit="10" stroke-linecap="round" stroke-linejoin="round"/>
<path d="M637.752 818.215C637.752 818.215 732.652 903.581 869.152 872.815" stroke="#EDF3F4" stroke-width="13" stroke-miterlimit="10" stroke-linecap="round" stroke-linejoin="round"/>
<path d="M662.885 692.114C662.885 692.114 644.685 717.247 637.319 783.547C628.652 863.281 666.352 929.581 666.352 929.581" stroke="#EDF3F4" stroke-width="13" stroke-miterlimit="10" stroke-linecap="round" stroke-linejoin="round"/>
<path d="M602.651 695.581C602.651 695.581 552.818 660.914 517.718 601.114" stroke="white" stroke-width="13" stroke-miterlimit="10" stroke-linecap="round" stroke-linejoin="round"/>
<path d="M492.152 735.881C502.118 768.381 526.818 821.248 589.218 868.915" stroke="white" stroke-width="13" stroke-miterlimit="10" stroke-linecap="round" stroke-linejoin="round"/>
</g>
</svg>
