<svg width="1000" height="1000" viewBox="0 0 1000 1000" fill="none" xmlns="http://www.w3.org/2000/svg">
<path d="M466.92 105.26H154.95C138.409 105.26 125 118.669 125 135.21V177.61C125 194.151 138.409 207.56 154.95 207.56H466.92C483.461 207.56 496.87 194.151 496.87 177.61V135.21C496.87 118.669 483.461 105.26 466.92 105.26Z" fill="#9EC8FF"/>
<path d="M439.58 191.03C458.7 191.03 474.2 175.53 474.2 156.41C474.2 137.29 458.7 121.79 439.58 121.79C420.46 121.79 404.96 137.29 404.96 156.41C404.96 175.53 420.46 191.03 439.58 191.03Z" fill="white"/>
<path d="M466.92 259.94H154.95C138.409 259.94 125 273.349 125 289.89V332.29C125 348.831 138.409 362.24 154.95 362.24H466.92C483.461 362.24 496.87 348.831 496.87 332.29V289.89C496.87 273.349 483.461 259.94 466.92 259.94Z" fill="#343131"/>
<path d="M182.3 345.71C201.42 345.71 216.92 330.21 216.92 311.09C216.92 291.97 201.42 276.47 182.3 276.47C163.18 276.47 147.68 291.97 147.68 311.09C147.68 330.21 163.18 345.71 182.3 345.71Z" fill="#9EC8FF"/>
<path d="M585.16 236.48C578.767 247.263 570.853 257.067 561.66 265.59L563.59 265.84C555.59 250.66 547.39 235.54 539.26 220.4L514.87 175C511.02 167.84 507.28 160.62 503.3 153.53C500.09 147.82 496.51 142.14 491.72 137.62C487.82 133.93 483.07 130.97 477.72 130.08C472.727 129.372 467.648 129.558 462.72 130.63C450.4 133.146 438.903 138.697 429.27 146.78C428 147.84 426.78 148.96 425.6 150.11C424.42 151.26 426.2 153.02 427.39 151.9C436.514 143.363 447.606 137.214 459.68 134C464.596 132.63 469.704 132.072 474.8 132.35C479.752 132.766 484.445 134.745 488.2 138C493.09 142.07 496.71 147.4 499.89 152.86C503.74 159.47 507.23 166.3 510.89 173.04L534.7 217.34C542.63 232.11 550.51 246.92 558.53 261.64L561.53 267.1C561.626 267.261 561.758 267.397 561.914 267.5C562.071 267.603 562.249 267.668 562.434 267.693C562.62 267.717 562.809 267.698 562.987 267.639C563.164 267.58 563.326 267.481 563.46 267.35C572.668 258.563 580.515 248.452 586.74 237.35C586.858 237.148 586.891 236.908 586.832 236.682C586.773 236.456 586.627 236.263 586.425 236.145C586.223 236.027 585.983 235.994 585.757 236.053C585.531 236.112 585.338 236.258 585.22 236.46L585.16 236.48Z" fill="#343131"/>
<path d="M651.34 160C648.99 158.9 646.27 160.21 644.05 161.56C617.39 177.74 598.2 203.56 580.35 229.12C578.07 232.39 575.76 235.75 574.7 239.59C572.92 246.09 574.96 253.05 578.03 259.04C586.79 276.18 603.81 288.3 622.38 293.34C623.391 293.713 624.49 293.783 625.54 293.54C626.54 293.21 641.08 300.83 641.78 300.02C656.4 282.96 664.47 264.18 676.71 245.34" fill="#9EC8FF"/>
<path d="M460.27 150.1C456.551 150.962 453.004 152.446 449.78 154.49C446.96 156.3 443.06 158.96 442.42 162.49C441.26 168.87 449.75 170.49 454.36 170.33L453.12 169.09C453.87 179.63 464.12 188.36 474.72 187.01L473.45 186.01C478.23 209.01 480.66 232.52 486.04 255.44C490.65 275.06 497.63 294.58 509.4 311.1C520.71 326.98 536.52 339.5 555.47 344.78C564.718 347.554 574.491 348.103 583.992 346.383C593.492 344.662 602.452 340.721 610.14 334.88C618.437 328.703 625.8 321.36 632 313.08C635.45 308.62 638.67 303.98 641.79 299.28C643.31 296.98 644.79 294.68 646.29 292.37C647.781 290.305 649.039 288.082 650.04 285.74C650.489 284.703 650.676 283.57 650.583 282.444C650.491 281.317 650.122 280.23 649.51 279.28C648.51 277.88 646.19 279.17 647.16 280.65C648.51 282.73 647.27 285.29 646.16 287.2C644.89 289.39 643.44 291.48 642.06 293.6C639.11 298.15 636.11 302.66 632.93 307.05C626.93 315.38 620.15 323.26 612.14 329.76C604.771 335.926 596.138 340.398 586.85 342.86C578.03 344.97 568.842 345.018 560 343C541.54 338.93 525.57 327.58 514.1 312.76C502.17 297.35 494.86 278.83 490 260.11C484.32 238.28 481.77 215.83 477.61 193.7C477.09 190.927 476.54 188.163 475.96 185.41C475.891 185.125 475.728 184.872 475.498 184.691C475.267 184.509 474.983 184.411 474.69 184.41C465.59 185.59 456.29 178.41 455.56 169.13C455.555 168.805 455.424 168.496 455.194 168.266C454.964 168.036 454.655 167.905 454.33 167.9C451.28 168.03 442.58 167.07 445.03 161.99C445.802 160.691 446.821 159.556 448.03 158.65C449.246 157.569 450.543 156.582 451.91 155.7C454.639 153.968 457.631 152.692 460.77 151.92C461.009 151.854 461.211 151.695 461.333 151.48C461.455 151.264 461.486 151.009 461.42 150.77C461.354 150.531 461.195 150.329 460.98 150.207C460.764 150.085 460.509 150.054 460.27 150.12V150.1Z" fill="#343131"/>
<path d="M685.73 354C680.397 416.58 676.23 479.247 673.23 542C671.62 575.89 670.38 610.12 676.44 643.5C680.74 667.17 688.65 690.02 696.92 712.61C723.08 784 762.44 854.07 800.53 920.1C801.272 921.388 801.585 922.879 801.423 924.357C801.262 925.835 800.633 927.223 799.63 928.32C786.63 942.62 780.46 949.61 789.17 953.57C798.9 957.98 806.75 956.69 819.23 957.15C830.259 957.539 841.289 956.388 852 953.73C862.73 951.09 868.68 948.63 871.12 938.03C872.099 933.556 871.809 928.897 870.28 924.58C859.44 893 849.28 860.93 844.65 827.85C839.93 794.24 840.95 760.08 837.65 726.29C834.35 692.5 826.28 658 805.76 631C800.58 624.17 794.54 617.68 791.76 609.56C789.11 601.77 789.76 593.29 790.64 585.11C795.27 542.2 805.56 500 808 456.9C810.44 413.8 804.15 368.37 778.9 333.4" fill="#343131"/>
<path d="M684.75 354C680.463 402.98 676.88 452.023 674 501.13C672.6 525.43 671.12 549.78 670.59 574.13C670.08 597.83 670.81 621.69 675.17 645.05C679.49 668.15 687.17 690.43 695.24 712.44C703.14 734.01 712.09 755.18 721.76 776C741.47 818.45 764.03 859.53 787.28 900.12C790.187 905.187 793.1 910.25 796.02 915.31C797.34 917.59 799.44 920.2 799.87 922.82C800.44 926.36 797.14 928.82 795.02 931.22C792.103 934.334 789.374 937.62 786.85 941.06C785.38 943.16 783.77 945.66 783.65 948.31C783.37 954.54 792.03 956.58 796.65 957.49C800.767 958.208 804.941 958.542 809.12 958.49C814.64 958.49 820.17 958.79 825.68 958.69C836.358 958.533 846.965 956.908 857.2 953.86C863.53 951.92 868.76 948.71 871.29 942.34C875.4 931.95 870.91 922.28 867.61 912.34C863.83 901.02 860.21 889.63 856.98 878.13C850.318 854.941 845.901 831.165 843.79 807.13C841.79 782.87 841.69 758.5 839.79 734.24C838.14 713.24 835.05 692.24 828.43 672.24C825.33 662.684 821.311 653.451 816.43 644.67C811.35 635.67 804.74 628.01 798.8 619.6C795.506 615.225 793.188 610.196 792 604.85C790.89 599.09 791.27 593.13 791.84 587.33C793.02 575.28 794.84 563.28 796.66 551.33C800.33 527.9 804.66 504.55 807.34 480.98C812.05 439.98 811.49 396.78 794.73 358.3C790.803 349.257 785.929 340.656 780.19 332.64C779.06 331.04 776.39 332.57 777.55 334.18C801.21 367.23 808.01 408.82 806.84 448.68C805.48 495.23 793.66 540.58 788.99 586.78C787.99 597.01 788.06 607.14 793.24 616.32C798.17 625.04 805.39 632.32 810.72 640.76C821.64 658.16 828.16 677.92 832.13 697.97C841.05 743.04 836.89 789.45 844.24 834.73C847.97 857.73 854.24 880.19 861.33 902.33C863.09 907.817 864.903 913.293 866.77 918.76C868.77 924.58 871.04 930.27 869.96 936.54C869.32 940.26 867.9 944.06 865.09 946.68C862.49 949.09 859.09 950.31 855.7 951.28C844.977 954.376 833.861 955.902 822.7 955.81C813.37 955.75 802.96 956.62 793.93 953.88C791.6 953.17 786.8 952.01 786.47 948.88C786.19 946.2 788.69 943.22 790.19 941.24C793.26 937.24 796.83 933.58 800.19 929.77C802.59 927.03 803.64 923.63 802.19 920.14C800.04 915.14 796.66 910.41 793.96 905.69C791.147 900.77 788.34 895.847 785.54 890.92C779.9 881 774.317 871.043 768.79 861.05C757.69 840.94 746.9 820.66 736.7 800.05C716.31 758.96 697.82 716.41 684.93 672.32C678.369 649.809 674.59 626.58 673.68 603.15C672.68 579.65 673.89 556.15 675.01 532.63C677.31 484.757 680.27 436.923 683.89 389.13C684.777 377.39 685.713 365.653 686.7 353.92C686.8 352.67 684.86 352.68 684.7 353.92L684.75 354Z" fill="#343131"/>
<path d="M636.33 347.84C577.671 514.024 536.668 685.921 514 860.69C511.29 881.56 507.87 904.42 492.13 918.4C486.9 923.05 480.53 926.45 476.05 931.82C471.57 937.19 469.61 945.75 474.24 950.99C477.96 955.19 484.24 955.62 489.86 955.74L552.54 957.18C559.2 957.34 566.34 957.35 571.86 953.63C579.75 948.31 581.37 937.63 582.56 928.15C587.743 886.994 598.161 846.667 613.56 808.15C635.94 752.24 669.35 697.34 666.56 637.15C666.19 629.37 665.21 621.58 666.04 613.84C667.48 600.37 674.24 588.16 680.48 576.14C694.105 549.885 705.803 522.673 715.48 494.72C733.71 442 743.23 379 710.32 333.85" fill="#343131"/>
<path d="M635.36 347.57C618.9 393.91 603.803 440.72 590.07 488C576.47 535.04 564.253 582.457 553.42 630.25C542.54 678.183 533.1 726.433 525.1 775C521.1 799.06 517.483 823.177 514.25 847.35C511.56 867.28 510.56 889.53 499.67 907.08C497.037 911.332 493.742 915.137 489.91 918.35C485.91 921.66 481.5 924.35 477.72 927.91C471.93 933.33 467.21 942.82 471.9 950.42C476.96 958.6 489.04 957.28 497.22 957.42L535.32 958.3C541.56 958.44 547.8 958.62 554.03 958.72C558.97 958.8 564.09 958.72 568.76 956.89C577.13 953.68 580.91 945.56 582.63 937.29C584.89 926.39 585.72 915.16 587.63 904.19C589.743 892.257 592.3 880.413 595.3 868.66C601.232 845.564 608.822 822.925 618.01 800.92C626.76 779.92 636.6 759.36 645.32 738.34C653.88 717.7 661.46 696.47 665.32 674.41C667.244 663.73 668.155 652.892 668.04 642.04C667.86 629.8 665.74 617.7 668.96 605.66C671.96 594.33 677.96 584.08 683.27 573.71C688.83 562.837 694.067 551.8 698.98 540.6C708.15 519.66 716.47 498.2 722.8 476.22C733.7 438.36 739.54 395.53 724.96 357.81C721.527 349.046 716.972 340.763 711.41 333.17C710.41 331.81 708.13 333.12 709.13 334.51C732.98 367.51 733.82 410.51 726.36 449.09C722.36 469.71 715.95 489.72 708.58 509.36C700.103 531.947 690.289 554.009 679.19 575.43C674.26 584.95 669.02 594.49 666.19 604.91C663.19 616.33 664.75 627.71 665.19 639.33C665.91 661.27 661.73 683.01 655.19 703.87C641.73 746.58 619.35 785.87 604.58 828.05C596.769 850.385 590.593 873.259 586.1 896.49C583.92 907.72 582.31 919.02 580.76 930.35C579.52 939.3 577.37 950.22 567.95 953.97C562.89 955.97 557.24 955.76 551.9 955.64L533.47 955.22L496 954.37C486.95 954.16 470.82 954.73 473.33 941C475.24 930.55 486.01 925.86 493.2 919.47C507.43 906.82 511.75 887.13 514.36 869.11C517.71 846.03 520.59 822.89 524.16 799.84C531.493 752.42 540.18 705.237 550.22 658.29C560.173 611.55 571.463 565.12 584.09 519C596.757 472.72 610.703 426.817 625.93 381.29C629.65 370.197 633.443 359.133 637.31 348.1C637.75 346.86 635.79 346.34 635.36 347.56V347.57Z" fill="#343131"/>
<path d="M790.37 186.05C753.84 158.05 704.75 147.05 659.77 156.93C651.89 158.65 643.94 161.08 637.57 166.03C621.99 178.16 620.57 200.85 621.31 220.57C622.15 242.3 627.83 263.35 630.31 284.87C631.77 296.814 632.035 308.874 631.1 320.87C630.16 332.27 622.1 344.67 623.89 356.19C626.33 372.29 643.98 374.81 657.35 376.05C679.94 378.14 702.55 380.76 725.27 380.89C738.81 380.96 752.95 381.35 766.21 378.26C776.21 375.94 785.91 371.15 792.33 363.16C802.03 351.09 801.81 335.3 803.21 320.67C805.13 300.67 807.39 280.72 809.48 260.75C810.75 248.55 812.03 236.19 810.28 224.04C808.53 211.89 801.07 194.77 791.6 186.98" fill="#9EC8FF"/>
<path d="M671.15 161.48C666.15 163.84 662.75 168.91 661.15 174.25C659.55 179.59 659.51 185.25 659.47 190.81C659.417 191.081 659.421 191.36 659.482 191.63C659.542 191.899 659.657 192.153 659.821 192.376C659.984 192.599 660.192 192.785 660.431 192.923C660.67 193.062 660.936 193.149 661.21 193.18C664.28 194.18 667.67 195.18 670.65 193.93C671.2 193.731 671.672 193.364 672 192.88C672.164 192.466 672.243 192.024 672.232 191.579C672.222 191.134 672.123 190.696 671.94 190.29C670.9 186.871 669.62 183.529 668.11 180.29C668.435 182.912 669.268 185.446 670.56 187.75C671.217 188.898 672.133 189.875 673.236 190.605C674.339 191.334 675.597 191.795 676.91 191.95C680.43 192.16 683.46 189.49 685.56 186.65C688.763 182.428 690.723 177.396 691.22 172.12C691.689 166.824 690.272 161.533 687.22 157.18" fill="white"/>
<path d="M670.65 160.62C662.43 164.16 659.16 172.98 658.25 181.29C658.008 183.759 657.891 186.239 657.9 188.72C657.9 190.92 657.59 193.35 659.96 194.41C663.44 195.97 669.71 197.51 672.82 194.41C674.76 192.48 673.43 189.59 672.68 187.41C671.74 184.718 670.658 182.078 669.44 179.5C668.66 177.84 666.37 179.09 666.66 180.67C667.41 184.82 668.66 189.08 672.22 191.67C673.774 192.804 675.655 193.401 677.579 193.37C679.502 193.34 681.363 192.683 682.88 191.5C686.091 188.961 688.609 185.652 690.2 181.88C692.055 177.971 692.979 173.686 692.9 169.36C692.75 164.79 691.45 159.52 688.21 156.13C687.09 154.96 685.34 156.45 686.04 157.82C687.64 160.96 689.14 163.93 689.56 167.49C689.954 170.998 689.565 174.55 688.42 177.89C687.313 181.297 685.515 184.439 683.14 187.12C681.08 189.36 678.14 191.32 675.03 189.82C671.29 188.01 670.24 183.56 669.6 179.82L666.81 181C667.63 182.79 668.38 184.6 669.05 186.45C669.37 187.32 669.67 188.2 669.96 189.09C670.369 189.918 670.61 190.818 670.67 191.74C670.45 193.13 667.18 192.9 666.2 192.74C665.309 192.614 664.43 192.416 663.57 192.15C663.07 192.01 661.37 191.77 661.09 191.31C660.98 191.14 661.09 190.47 661.09 190.31C661.09 189.85 661.09 189.38 661.09 188.92C661.09 187.92 661.09 186.92 661.16 185.92C661.22 183.92 661.34 181.92 661.57 179.92C661.959 176.472 662.948 173.118 664.49 170.01C666.027 166.784 668.52 164.11 671.63 162.35C672.77 161.73 671.77 160.16 670.63 160.64L670.65 160.62Z" fill="#343131"/>
<path d="M620.33 220.57C620.45 239.2 624.72 257.42 627.53 275.75C629.037 285.201 629.902 294.742 630.12 304.31C630.2 309.077 630.083 313.843 629.77 318.61C629.472 322.623 628.718 326.588 627.52 330.43C624.97 338.87 621.1 347.43 622.82 356.43C623.06 357.67 625.16 357.43 625.05 356.13C624.31 348.19 627.46 340.41 629.85 333C631.139 329.295 632.05 325.469 632.57 321.58C633.033 316.901 633.247 312.201 633.21 307.5C633.21 288.74 629.95 270.28 626.59 251.9C624.6 241.534 623.162 231.069 622.28 220.55C622.23 220.329 622.106 220.132 621.929 219.99C621.752 219.849 621.532 219.772 621.305 219.772C621.078 219.772 620.859 219.849 620.681 219.99C620.504 220.132 620.38 220.329 620.33 220.55V220.57Z" fill="#343131"/>
<path d="M848.6 263.92C860.76 280.54 873.37 298.35 874.86 318.92C876.43 340.74 864.86 361.6 850.18 377.79C835.5 393.98 817.45 406.79 801.93 422.25C795.14 429.01 788.59 436.43 779.93 440.45C779.151 440.884 778.271 441.101 777.38 441.08C776.264 440.825 775.26 440.214 774.52 439.34C766.072 431.156 758.827 421.817 753 411.6C752.248 410.547 751.83 409.293 751.8 408C752.089 406.663 752.788 405.45 753.8 404.53C773.36 382.08 792.67 359.27 808.96 334.34C809.9 332.9 810.88 331.27 810.61 329.57C810.408 328.648 810.02 327.777 809.47 327.01C803.474 317.373 796.744 308.213 789.34 299.61" fill="white"/>
<path d="M847.75 264.42C854.93 274.87 862.44 285.31 867.59 296.94C872.59 308.23 874.8 320.57 872.59 332.81C871.511 338.771 869.669 344.569 867.11 350.06C865.859 352.849 864.37 355.526 862.66 358.06C860.92 360.61 859.44 363.33 857.66 365.86C850.22 376.36 840.92 385.36 831.33 393.86C821.47 402.62 811.21 410.96 801.8 420.22C797.36 424.59 793.15 429.22 788.34 433.22C786.001 435.176 783.475 436.897 780.8 438.36C779.56 439.02 778.01 440.13 776.61 439.36C775.291 438.415 774.099 437.306 773.06 436.06C768.467 431.375 764.256 426.329 760.47 420.97C758.61 418.303 756.857 415.593 755.21 412.84C754.34 411.644 753.665 410.317 753.21 408.91C752.84 407.12 754.57 405.65 755.62 404.44C764.62 394.09 773.62 383.67 782.2 372.98C790.78 362.29 799.05 351.43 806.72 340.11C807.68 338.69 808.63 337.263 809.57 335.83C810.532 334.559 811.276 333.136 811.77 331.62C812.57 328.43 810.22 325.69 808.6 323.18C804.907 317.473 800.96 311.94 796.76 306.58C794.653 303.913 792.483 301.27 790.25 298.65C789.09 297.31 787.16 299.26 788.31 300.6C792.977 306.053 797.387 311.72 801.54 317.6C803.5 320.393 805.397 323.237 807.23 326.13C808.01 327.36 809.33 328.86 809.23 330.41C809.1 332.13 807.61 333.84 806.7 335.21C798.95 346.95 790.52 358.21 781.7 369.21C772.88 380.21 763.6 391.08 754.28 401.79C752.28 404.02 749.77 406.34 750.55 409.61C751.037 411.106 751.738 412.524 752.63 413.82C753.517 415.34 754.443 416.837 755.41 418.31C758.995 423.829 763.008 429.058 767.41 433.95C769.551 436.486 771.87 438.865 774.35 441.07C774.861 441.553 775.468 441.923 776.131 442.156C776.795 442.388 777.5 442.478 778.2 442.42C779.71 442.128 781.154 441.562 782.46 440.75C788.1 437.75 792.87 433.38 797.36 428.92C802.01 424.3 806.61 419.66 811.48 415.26C816.35 410.86 821.63 406.36 826.74 401.95C836.86 393.23 847.02 384.35 855.56 374.03C857.56 371.603 859.477 369.1 861.31 366.52C863.243 363.938 864.949 361.195 866.41 358.32C869.08 352.67 871.9 347.21 873.7 341.18C877.354 329.214 877.295 316.421 873.53 304.49C869.61 292.13 862.53 281 854.94 270.6C853.12 268.11 851.19 265.68 849.29 263.23C848.61 262.35 847.11 263.51 847.74 264.43L847.75 264.42Z" fill="#343131"/>
<path d="M639.27 77.88C632.85 89.15 638.64 105.02 630.71 115.27C629.881 116.135 629.228 117.154 628.79 118.27C628.16 120.65 629.93 122.52 632.22 123.79C636.61 126.23 636.37 132.53 636.93 136.86C637.52 141.41 637.74 146.07 638.61 150.57C639.35 154.44 640.97 158.36 644.13 160.71C646.736 162.491 649.859 163.359 653.01 163.18C657.72 163.08 662.16 161.3 666.85 161.07C668.43 161 670.2 160.94 671.4 161.99C672.136 162.76 672.654 163.713 672.9 164.75C674.787 170.417 676.6 176.107 678.34 181.82C678.648 183.338 679.399 184.73 680.5 185.82C682.04 187.05 684.23 186.94 686.18 186.66C693.569 185.568 700.667 183.018 707.062 179.159C713.456 175.3 719.02 170.208 723.43 164.18C724.33 163.166 724.844 161.866 724.88 160.51C724.76 159.16 723.76 158.07 722.88 157.05C714.77 147.84 709.33 136.17 706.52 124.28C702 105.45 710.58 80.7 696 64.85C692.526 61.0938 687.992 58.4818 683 57.36C674.68 55.45 665.56 56.59 657.67 59.71C650.59 62.5 641.46 67.96 640.28 76.26" fill="white"/>
<path d="M638.41 77.38C635.5 82.49 634.92 88.38 634.55 94.15C634.18 99.92 634.18 106.02 631.61 111.27C631.029 112.462 630.318 113.585 629.49 114.62C628.401 115.743 627.653 117.15 627.33 118.68C626.94 121.84 629.45 123.68 631.79 125.21C633.89 126.57 634.55 129.14 634.92 131.46C635.35 134.19 635.53 137 635.82 139.75C636.5 146.17 636.52 153.64 640.52 159.07C644.73 164.81 651.85 165.25 658.32 164C661.71 163.35 665.23 162.23 668.72 162.51C670.42 162.65 671.03 163.65 671.55 165.18C672.18 167.01 672.77 168.85 673.36 170.69C674.56 174.377 675.723 178.073 676.85 181.78C677.77 184.78 679 187.63 682.45 188.2C685.38 188.69 688.67 187.84 691.51 187.2C694.465 186.486 697.357 185.536 700.16 184.36C705.829 181.978 711.09 178.722 715.75 174.71C718.104 172.681 720.285 170.46 722.27 168.07C724.08 165.88 726.88 163.01 726.17 159.92C725.769 158.623 725.054 157.445 724.09 156.49C722.98 155.2 721.88 153.91 720.86 152.54C718.822 149.813 716.984 146.942 715.36 143.95C712.101 137.913 709.627 131.484 708 124.82C706.801 119.404 706.247 113.866 706.35 108.32C706.27 97.08 707.35 85.17 703.35 74.44C701.351 68.9038 697.787 64.0677 693.09 60.52C687.65 56.52 680.84 55.08 674.19 55.13C667.565 55.233 661.032 56.7002 655 59.44C650.09 61.63 645.25 64.63 642.09 69.08C640.625 71.1267 639.665 73.4912 639.29 75.98C639.08 77.29 641.09 77.86 641.29 76.54C642.1 71.36 646.29 67.54 650.5 64.79C655.383 61.6869 660.813 59.5451 666.5 58.48C672.91 57.25 679.93 57.31 686.09 59.65C691.562 61.8162 696.102 65.8325 698.92 71C704.24 80.45 703.81 91.94 703.67 102.43C703.483 107.828 703.637 113.232 704.13 118.61C704.878 124.44 706.359 130.152 708.54 135.61C710.809 141.634 713.833 147.347 717.54 152.61C718.386 153.797 719.273 154.96 720.2 156.1C721.2 157.28 722.54 158.44 723.2 159.83C723.86 161.22 722.79 162.65 721.95 163.83C721.11 165.01 720.03 166.3 718.95 167.47C711.111 176.252 700.675 182.305 689.16 184.75C686.92 185.22 683.03 186.42 681.16 184.61C680.08 183.61 679.78 181.89 679.36 180.52C678.8 178.673 678.227 176.823 677.64 174.97C676.53 171.43 675.41 167.89 674.21 164.38C673.888 163.113 673.248 161.95 672.35 161C671.223 160.08 669.804 159.594 668.35 159.63C661.81 159.43 655.46 162.96 648.92 161.35C642.38 159.74 640.37 153.35 639.54 147.35C639.04 143.76 638.78 140.15 638.34 136.55C638.06 134.21 637.96 131.84 637.46 129.55C637.066 127.256 635.94 125.151 634.25 123.55C632.35 121.93 628.66 120.66 630.67 117.55C631.36 116.48 632.23 115.55 632.9 114.44C633.626 113.237 634.229 111.964 634.7 110.64C635.586 108.053 636.147 105.366 636.37 102.64C636.94 97.08 636.64 91.44 637.6 85.93C638.027 83.2797 638.881 80.7163 640.13 78.34C640.222 78.1169 640.23 77.868 640.153 77.6393C640.076 77.4106 639.918 77.2175 639.71 77.0957C639.502 76.9738 639.256 76.9315 639.019 76.9764C638.782 77.0213 638.569 77.1504 638.42 77.34L638.41 77.38Z" fill="#343131"/>
<path d="M645.82 106.52L645.67 106.72L645.77 106.62L645.56 106.78L645.69 106.71L645.42 106.82H645.53C645.66 106.82 645.78 106.72 645.9 106.67L645.62 106.79C645.686 106.758 645.757 106.738 645.83 106.73H645.51H645.73H645.4C645.48 106.743 645.557 106.766 645.63 106.8L645.34 106.67L645.57 106.81L645.32 106.62C645.401 106.686 645.474 106.759 645.54 106.84L645.33 106.58C645.429 106.708 645.51 106.85 645.57 107L645.44 106.69C645.49 106.805 645.523 106.926 645.54 107.05V106.69C645.56 106.813 645.56 106.937 645.54 107.06V106.71C645.527 106.799 645.504 106.886 645.47 106.97L645.6 106.65C645.569 106.717 645.533 106.78 645.49 106.84L645.7 106.56L645.57 106.69L645.85 106.48L645.71 106.56L646.04 106.42C645.984 106.429 645.926 106.429 645.87 106.42H646.23C646.164 106.43 646.096 106.43 646.03 106.42H646.4C646.324 106.411 646.25 106.391 646.18 106.36L646.51 106.5C646.458 106.474 646.408 106.444 646.36 106.41L646.64 106.63C646.598 106.595 646.561 106.555 646.53 106.51L646.74 106.8C646.639 106.647 646.529 106.5 646.41 106.36L646.62 106.63L646.56 106.53L646.7 106.85C646.638 106.636 646.525 106.44 646.37 106.28L646.11 106.07C645.965 105.98 645.8 105.928 645.63 105.92C645.515 105.89 645.395 105.89 645.28 105.92C645.167 105.92 645.057 105.951 644.96 106.01C644.851 106.037 644.751 106.092 644.67 106.17C644.532 106.266 644.419 106.392 644.34 106.54C644.191 106.796 644.109 107.084 644.1 107.38C644.096 107.59 644.134 107.798 644.213 107.992C644.293 108.187 644.411 108.363 644.56 108.51C644.828 108.801 645.176 109.007 645.56 109.1C645.942 109.21 646.348 109.21 646.73 109.1C647.219 108.951 647.635 108.627 647.9 108.19C648.01 108.025 648.091 107.842 648.14 107.65C648.145 107.597 648.145 107.543 648.14 107.49C648.14 107.32 648.19 107.16 648.2 106.99C648.192 106.563 648.09 106.143 647.9 105.76C647.866 105.667 647.818 105.58 647.76 105.5C647.632 105.315 647.485 105.144 647.32 104.99C647.012 104.701 646.632 104.501 646.22 104.41C645.91 104.345 645.59 104.345 645.28 104.41C645.082 104.459 644.892 104.54 644.72 104.65C644.496 104.796 644.313 104.997 644.187 105.233C644.061 105.469 643.997 105.733 644 106V106.26C644.027 106.385 644.09 106.499 644.18 106.59C644.307 106.761 644.486 106.887 644.69 106.95C644.865 106.99 645.046 106.99 645.22 106.95C645.469 106.879 645.68 106.714 645.81 106.49L645.82 106.52Z" fill="#343131"/>
<path d="M641.48 101.34C641.837 101.435 642.213 101.435 642.57 101.34H642.79H642.6C642.719 101.325 642.84 101.325 642.96 101.34H643.12C642.86 101.34 642.79 101.28 642.92 101.34C643.14 101.425 643.374 101.466 643.61 101.46L644.35 101.53L643.81 101.46C644.443 101.542 645.07 101.659 645.69 101.81L645.14 101.58H645.23C645.78 101.867 646.414 101.952 647.02 101.82C647.36 101.729 647.674 101.56 647.936 101.325C648.199 101.091 648.402 100.798 648.53 100.47C648.664 100.164 648.73 99.832 648.723 99.4978C648.717 99.1636 648.638 98.8347 648.493 98.5336C648.348 98.2326 648.139 97.9665 647.881 97.7536C647.624 97.5406 647.323 97.3859 647 97.3C645.26 96.9949 643.48 96.9949 641.74 97.3C641.144 97.4621 640.637 97.8542 640.33 98.39C640.078 98.847 639.98 99.3729 640.05 99.89C640.132 100.447 640.411 100.955 640.837 101.322C641.263 101.69 641.807 101.891 642.37 101.89C643.955 101.747 645.551 101.773 647.13 101.97L646.5 101.88C647.29 102 648.07 102.2 648.87 102.28L647.68 97.86L647.21 98.13C646.851 98.3456 646.563 98.6633 646.385 99.0427C646.207 99.422 646.146 99.8458 646.21 100.26C646.266 100.672 646.44 101.058 646.712 101.373C646.983 101.687 647.341 101.915 647.74 102.03L648.26 102.19C648.866 102.351 649.51 102.268 650.056 101.96C650.602 101.651 651.005 101.142 651.18 100.54C651.332 99.9332 651.245 99.291 650.936 98.747C650.626 98.2031 650.119 97.7994 649.52 97.62C648.831 97.4486 648.128 97.3414 647.42 97.3C646.85 97.24 646.29 97.17 645.72 97.14C644.611 97.055 643.498 97.055 642.39 97.14L643.02 101.77H643.15L642.52 101.86C643.163 101.77 643.811 101.72 644.46 101.71C645.12 101.71 645.76 101.78 646.41 101.81L645.79 97.24H645.69L646.29 97.16C645.278 97.1595 644.271 97.2838 643.29 97.53C643.06 97.5878 642.838 97.6752 642.63 97.79L642.25 98.08C642.14 98.17 642.15 98.16 642.25 98.08C642.35 98 642.25 98.08 642.17 98.08C642.073 98.1308 641.98 98.1875 641.89 98.25C641.4 98.6 640.71 99.08 640.62 99.73C640.542 100.043 640.586 100.373 640.744 100.654C640.902 100.935 641.162 101.145 641.47 101.24L641.48 101.34Z" fill="#343131"/>
<path d="M682.11 102.91C681.488 103.069 680.922 103.398 680.477 103.861C680.032 104.324 679.724 104.902 679.59 105.53C679.31 106.261 679.31 107.069 679.59 107.8C679.716 108.029 679.899 108.221 680.122 108.358C680.345 108.494 680.599 108.571 680.86 108.58C681.155 108.593 681.447 108.509 681.691 108.341C681.934 108.173 682.117 107.931 682.21 107.65C682.297 107.341 682.279 107.011 682.16 106.713C682.041 106.415 681.826 106.164 681.55 106C681.236 105.819 680.872 105.743 680.512 105.785C680.152 105.826 679.815 105.982 679.55 106.23C679.399 106.382 679.296 106.575 679.256 106.785C679.215 106.995 679.237 107.213 679.32 107.41C679.402 107.608 679.541 107.776 679.719 107.896C679.897 108.015 680.106 108.079 680.32 108.08C680.524 108.069 680.725 108.032 680.92 107.97H680.63H680.81H680.52H680.63L680.37 107.86L680.45 107.91L680.23 107.74L680.3 107.81L680.12 107.59C680.142 107.613 680.159 107.64 680.17 107.67L680.06 107.4V107.49V107.2V106.9C680.066 106.93 680.066 106.96 680.06 106.99L680.17 106.73L680.34 106.5V106.56L680.56 106.39L680.82 106.28H680.75H681.04C680.997 106.29 680.953 106.29 680.91 106.28H681.2H681.08L681.34 106.39C681.21 106.32 681.48 106.52 681.51 106.56C681.54 106.6 681.51 106.56 681.51 106.56L681.62 106.82C681.616 106.767 681.616 106.713 681.62 106.66V106.95C681.57 106.588 681.57 106.222 681.62 105.86V106.15C681.656 105.902 681.713 105.658 681.79 105.42V105.3V105.43C681.821 105.38 681.845 105.327 681.86 105.27L682.04 104.97C682.16 104.8 681.95 105.07 682.04 104.97L682.15 104.85C682.181 104.808 682.218 104.771 682.26 104.74C682.26 104.74 682.44 104.58 682.26 104.69C682.08 104.8 682.26 104.69 682.32 104.69L682.45 104.61C682.63 104.52 682.34 104.61 682.45 104.61L682.62 104.55C682.851 104.487 683.049 104.335 683.168 104.127C683.288 103.919 683.321 103.672 683.26 103.44C683.179 103.218 683.022 103.032 682.817 102.915C682.612 102.798 682.372 102.757 682.14 102.8L682.11 102.91Z" fill="#343131"/>
<path d="M649.7 138.8C652.387 137.203 654.353 134.631 655.19 131.62C655.267 131.338 655.229 131.036 655.085 130.782C654.941 130.527 654.702 130.339 654.42 130.26C654.138 130.191 653.84 130.232 653.587 130.375C653.335 130.518 653.146 130.753 653.06 131.03C652.94 131.36 652.82 131.68 652.69 132.03C652.668 132.095 652.641 132.159 652.61 132.22C652.69 132.03 652.61 132.22 652.61 132.28C652.61 132.34 652.47 132.6 652.39 132.75C652.087 133.356 651.732 133.935 651.33 134.48L651.21 134.65C651.33 134.49 651.21 134.65 651.21 134.71L650.88 135.11C650.677 135.368 650.46 135.615 650.23 135.85C649.996 136.106 649.749 136.349 649.49 136.58L649.13 136.88C648.94 137.04 648.98 137 648.8 137.14C648.583 137.275 648.425 137.488 648.36 137.735C648.295 137.983 648.327 138.246 648.45 138.47C648.585 138.687 648.798 138.845 649.045 138.91C649.293 138.975 649.556 138.943 649.78 138.82L649.7 138.8Z" fill="#343131"/>
<path d="M671.18 104.12L668 89.71C667.784 88.4392 667.376 87.2085 666.79 86.06C666.235 85.1914 665.602 84.3747 664.9 83.62C660.757 78.6399 658.672 72.2659 659.07 65.8C654.169 70.1422 648.397 73.3878 642.14 75.32C640.22 75.91 638.14 76.38 636.22 75.7C634.3 75.02 632.87 72.79 633.72 70.96C631.28 70.48 628.93 68.87 628.24 66.49C627.55 64.11 629.15 61.13 631.62 60.95C628.87 59.45 625.86 57.61 625.12 54.56C624.896 53.2629 625.024 51.9295 625.49 50.6986C625.956 49.4676 626.744 48.3838 627.77 47.56C629.857 45.9281 632.306 44.8236 634.91 44.34C639.772 43.2643 644.741 42.7443 649.72 42.79C657.453 42.7303 665.173 43.4 672.78 44.79C675.91 45.2001 678.934 46.2012 681.69 47.74C683.34 48.74 684.77 50.17 686.55 50.98C688.78 51.98 691.32 51.98 693.76 52.32C698.84 53.0283 703.642 55.066 707.681 58.2268C711.72 61.3877 714.852 65.5595 716.76 70.32C720.53 80.07 718.68 91.04 715.95 101.13C713.22 111.22 709.63 121.33 710.03 131.78C710.112 132.376 710.022 132.983 709.77 133.53C709.16 134.53 707.66 134.47 706.5 134.2C701.972 133.092 697.746 130.992 694.128 128.052C690.511 125.113 687.591 121.406 685.58 117.2C685.253 116.628 685.084 115.979 685.09 115.32C685.298 114.429 685.772 113.624 686.45 113.01C688.815 110.507 690.135 107.194 690.14 103.75C689.98 100.34 687.71 96.94 684.39 96.15C683.05 95.9141 681.673 95.9889 680.366 96.3686C679.058 96.7483 677.856 97.4227 676.85 98.34C674.85 100.194 673.161 102.359 671.85 104.75" fill="#343131"/>
<path d="M672.08 103.87L669.81 92.78C669.11 89.37 668.69 86.11 666.39 83.36C662.185 78.5085 660.033 72.2105 660.39 65.8C660.383 65.5392 660.3 65.2861 660.152 65.0714C660.004 64.8566 659.796 64.6894 659.555 64.59C659.314 64.4905 659.049 64.4631 658.793 64.511C658.536 64.559 658.299 64.6802 658.11 64.86C654.435 68.0782 650.265 70.6817 645.76 72.57C643.618 73.5825 641.341 74.2798 639 74.64C637.14 74.8 634.14 73.75 635.09 71.33C635.137 71.1527 635.148 70.9679 635.123 70.7863C635.097 70.6048 635.037 70.4299 634.944 70.2719C634.851 70.1139 634.727 69.9758 634.581 69.8657C634.434 69.7555 634.268 69.6754 634.09 69.63C632.21 69.21 630.15 68.12 629.59 66.12C629.19 64.69 629.95 62.58 631.59 62.53C631.932 62.5216 632.262 62.4029 632.532 62.1918C632.801 61.9806 632.995 61.6882 633.085 61.358C633.175 61.0277 633.156 60.6773 633.03 60.3588C632.905 60.0403 632.681 59.7706 632.39 59.59C630.95 58.59 629.17 57.95 627.95 56.7C627.321 56.1111 626.86 55.3654 626.614 54.5395C626.368 53.7136 626.346 52.8372 626.55 52C627.62 47.83 632.28 46.36 635.98 45.54C644.98 43.54 654.77 43.93 663.93 44.92C668.42 45.2733 672.864 46.0637 677.2 47.28C679.171 47.9259 681.018 48.9032 682.66 50.17C684.281 51.4955 686.167 52.4602 688.19 53C690.19 53.46 692.25 53.48 694.27 53.8C696.009 54.0802 697.717 54.529 699.37 55.14C702.694 56.3711 705.75 58.2317 708.37 60.62C711.203 63.2716 713.463 66.4753 715.011 70.0336C716.559 73.5919 717.362 77.4296 717.37 81.31C717.62 90.19 715.04 98.77 712.62 107.22C711.37 111.56 710.1 115.95 709.23 120.39C708.847 122.599 708.603 124.83 708.5 127.07C708.44 128.15 708.4 129.24 708.41 130.32C708.41 130.91 708.78 132.48 708.2 132.72C707.62 132.96 706.45 132.51 705.86 132.34C704.97 132.1 704.08 131.81 703.21 131.49C701.544 130.853 699.94 130.063 698.42 129.13C695.37 127.275 692.664 124.907 690.42 122.13C689.286 120.731 688.282 119.231 687.42 117.65C687.05 116.94 686.33 115.94 686.58 115.13C687.044 114.24 687.633 113.422 688.33 112.7C690.47 109.7 691.85 105.7 691.08 102.05C690.39 98.78 687.9 95.68 684.53 94.97C680.62 94.14 676.84 96.26 674.32 99.12C673.01 100.688 671.829 102.361 670.79 104.12C669.92 105.52 672.15 106.83 673 105.42C675.18 101.83 678.07 97.23 682.81 97.18C687.04 97.18 689.42 101.62 688.99 105.39C688.663 107.613 687.705 109.695 686.23 111.39C684.94 112.96 683.34 114.27 683.82 116.53C684.37 118.324 685.215 120.014 686.32 121.53C687.355 123.149 688.53 124.675 689.83 126.09C692.435 128.945 695.526 131.315 698.96 133.09C700.674 133.978 702.465 134.711 704.31 135.28C706 135.8 708.02 136.43 709.73 135.64C711.88 134.64 711.63 132.42 711.63 130.42C711.606 128.075 711.79 125.732 712.18 123.42C712.61 120.96 712.95 118.49 713.53 116.06C714.11 113.63 714.69 111.51 715.32 109.24C717.85 100.24 720.65 91.07 720.41 81.59C720.2 73.29 717.3 65.36 711.33 59.48C708.635 56.8079 705.472 54.6523 702 53.12C700.274 52.357 698.479 51.7609 696.64 51.34C694.64 50.88 692.53 50.77 690.47 50.5C688.276 50.1969 686.203 49.3093 684.47 47.93C682.808 46.6366 680.965 45.5954 679 44.84C674.63 43.23 669.74 42.71 665.14 42.17C655.41 41.02 645.14 40.63 635.46 42.71C631.41 43.59 627.09 45.1 624.82 48.83C623.82 50.4168 623.409 52.3047 623.66 54.1636C623.91 56.0225 624.806 57.7344 626.19 59C627.519 60.3781 629.088 61.503 630.82 62.32L631.19 59.44C629.769 59.8184 628.534 60.7006 627.715 61.9223C626.896 63.144 626.55 64.6217 626.74 66.08C627.18 69.4 630.26 71.63 633.34 72.31L632.34 70.6C631.41 73.02 632.96 75.71 635.18 76.77C638.01 78.13 641.3 77.09 644.08 76.11C649.939 74.0416 655.344 70.8637 660 66.75L657.72 65.75C657.359 72.143 659.3 78.4539 663.19 83.54C664.19 84.87 665.56 86.05 666.19 87.64C666.765 89.3384 667.216 91.0763 667.54 92.84L670.27 104.32C670.55 105.49 672.32 104.99 672.07 103.82L672.08 103.87Z" fill="#343131"/>
<path d="M659.48 410.05C657.48 431.25 656.507 452.513 656.56 473.84C656.56 495.12 657.72 516.41 659.75 537.6C660.89 549.44 662.31 561.27 664.25 573.01C664.46 574.3 666.73 574.01 666.56 572.7C663.79 551.7 661.44 530.62 660.24 509.43C659.04 488.24 658.79 467.03 659.47 445.84C659.863 433.9 660.53 421.97 661.47 410.05C661.57 408.78 659.61 408.8 659.47 410.05H659.48Z" fill="#9EC8FF"/>
<path d="M711.44 615.72C716.87 613.61 722.36 611.61 727.72 609.35C728.85 608.87 728.41 607.03 727.21 607.47C721.73 609.47 716.34 611.71 710.93 613.84C709.77 614.3 710.27 616.18 711.44 615.72Z" fill="#9EC8FF"/>
<path d="M715.12 627.69C719.834 626.479 724.432 624.852 728.86 622.83C730 622.32 729.01 620.63 727.86 621.15C723.581 623.095 719.141 624.664 714.59 625.84C714.406 625.954 714.264 626.124 714.185 626.325C714.107 626.526 714.095 626.748 714.152 626.956C714.21 627.164 714.333 627.348 714.504 627.481C714.675 627.613 714.884 627.686 715.1 627.69H715.12Z" fill="#9EC8FF"/>
<path d="M593.22 606.72L605 609.55C606.25 609.85 606.78 607.92 605.53 607.62L593.77 604.84C592.55 604.55 592.03 606.42 593.25 606.72H593.22Z" fill="#9EC8FF"/>
<path d="M594.71 618.65C596.557 618.173 598.49 618.128 600.357 618.518C602.225 618.909 603.978 619.724 605.48 620.9C605.678 621.085 605.939 621.188 606.21 621.188C606.481 621.188 606.742 621.085 606.94 620.9C607.038 620.807 607.117 620.694 607.17 620.57C607.224 620.445 607.251 620.311 607.251 620.175C607.251 620.039 607.224 619.905 607.17 619.781C607.117 619.656 607.038 619.543 606.94 619.45C605.173 618.028 603.099 617.036 600.883 616.554C598.666 616.071 596.368 616.111 594.17 616.67C593.905 616.742 593.679 616.916 593.542 617.154C593.405 617.392 593.368 617.675 593.44 617.94C593.511 618.205 593.686 618.431 593.924 618.568C594.162 618.705 594.445 618.742 594.71 618.67V618.65Z" fill="#9EC8FF"/>
<path d="M500 907.73C510.517 909.684 520.831 912.606 530.81 916.46C535.69 918.46 540.47 921.28 545.68 922.28C550.89 923.28 556.68 922.86 562.09 922.6C568.379 922.27 574.643 921.569 580.85 920.5C582.08 920.3 581.85 918.17 580.55 918.3C575.06 918.89 569.55 919.3 564.04 919.59C558.53 919.88 553.04 920.43 547.68 919.79C542.32 919.15 537.68 916.34 532.82 914.39C527.861 912.383 522.789 910.667 517.63 909.25C511.939 907.647 506.136 906.474 500.27 905.74C499.14 905.61 498.88 907.51 500 907.74V907.73Z" fill="#9EC8FF"/>
<path d="M800.79 916.54C809.51 915.759 818.271 915.532 827.02 915.86C829.081 915.932 831.124 916.268 833.1 916.86C834.95 917.47 836.68 918.37 838.46 919.15C842.001 920.739 845.939 921.223 849.76 920.54C852.15 920.16 854.53 919.61 856.9 919.13C859.433 918.728 861.938 918.167 864.4 917.45C865.65 917.03 865.54 914.9 864.07 915.01C861.982 915.248 859.912 915.615 857.87 916.11L851.35 917.45C849.331 917.923 847.263 918.155 845.19 918.14C843.22 917.99 841.293 917.489 839.5 916.66C837.8 915.96 836.14 915.15 834.4 914.56C832.456 913.934 830.439 913.561 828.4 913.45C824.124 913.255 819.841 913.295 815.57 913.57C810.63 913.777 805.697 914.11 800.77 914.57C799.56 914.68 799.53 916.57 800.77 916.49L800.79 916.54Z" fill="#9EC8FF"/>
<path d="M747.19 258.24C758.411 274.466 770.839 289.823 784.37 304.18C787.12 307.1 790.16 310.11 794.09 310.89C797.35 311.53 800.69 310.52 803.8 309.34C824.145 301.525 840.884 286.467 850.8 267.06C851.687 265.626 852.141 263.966 852.11 262.28C851.806 260.749 851.118 259.321 850.11 258.13L823.82 220.35C815.37 208.2 790.66 179.2 770.66 173.25" fill="#9EC8FF"/>
<path d="M746.36 258.73C752.454 268.047 759.054 277.024 766.13 285.62C769.623 289.88 773.223 294.05 776.93 298.13C780.4 301.97 783.86 306.13 787.99 309.3C790.055 310.972 792.558 312.013 795.2 312.3C798.26 312.56 801.29 311.59 804.11 310.53C805.53 309.99 804.91 307.7 803.48 308.24C801.079 309.294 798.492 309.862 795.87 309.91C793.471 309.737 791.19 308.801 789.36 307.24C787.568 305.704 785.896 304.032 784.36 302.24C782.57 300.3 780.81 298.33 779.05 296.36C772.05 288.54 765.43 280.44 758.95 272.2C755.22 267.46 751.6 262.63 748.03 257.77C747.31 256.77 745.68 257.68 746.37 258.77L746.36 258.73Z" fill="#343131"/>
<path d="M716.77 144.72C714.77 151.41 709.87 156.95 704.21 161.05C698.55 165.15 692.08 167.97 685.66 170.73C684.819 171.019 684.059 171.502 683.44 172.14C682.984 172.791 682.679 173.536 682.55 174.32C681.389 179.288 681.051 184.413 681.55 189.49C681.65 190.58 681.93 191.86 682.94 192.28C683.452 192.438 683.996 192.462 684.52 192.35C687.147 192.01 689.763 191.587 692.37 191.08C691.637 188.337 690.374 185.765 688.65 183.51C690.524 187.522 692.936 191.259 695.82 194.62C696.501 195.601 697.507 196.309 698.66 196.62C699.624 196.674 700.584 196.456 701.43 195.99C715.725 189.532 726.989 177.824 732.89 163.29C733.508 162.053 733.758 160.665 733.61 159.29C733.329 158.235 732.824 157.253 732.13 156.41L723.73 144.55C722.862 143.064 721.626 141.828 720.14 140.96C719.131 140.506 718.002 140.39 716.922 140.627C715.841 140.865 714.866 141.445 714.14 142.28" fill="white"/>
<path d="M715.83 144.46C712.51 154.05 703.83 160.41 695.1 164.83C692.73 166.04 690.3 167.14 687.86 168.21C685.73 169.14 682.86 169.83 681.77 172.07C680.68 174.31 680.4 177.43 680.13 179.96C679.829 182.73 679.772 185.52 679.96 188.3C680.13 190.65 680.54 193.69 683.49 193.85C684.97 193.821 686.444 193.647 687.89 193.33C689.5 193.08 691.11 192.77 692.71 192.43C692.889 192.384 693.057 192.302 693.205 192.19C693.352 192.078 693.476 191.938 693.569 191.779C693.662 191.619 693.722 191.442 693.746 191.258C693.771 191.075 693.758 190.889 693.71 190.71C692.907 187.862 691.596 185.182 689.84 182.8C689.644 182.498 689.338 182.283 688.987 182.201C688.636 182.118 688.267 182.174 687.956 182.357C687.645 182.54 687.417 182.836 687.319 183.183C687.221 183.53 687.261 183.902 687.43 184.22C689.06 187.668 691.073 190.922 693.43 193.92C694.49 195.27 695.62 196.92 697.21 197.63C698.8 198.34 700.56 197.94 702.21 197.23C708.192 194.555 713.703 190.932 718.53 186.5C723.417 182.037 727.562 176.825 730.81 171.06C731.617 169.62 732.367 168.147 733.06 166.64C733.872 165.069 734.516 163.416 734.98 161.71C735.85 157.71 732.62 154.57 730.48 151.56L726.41 145.83C725.337 144.076 724.072 142.446 722.64 140.97C722.005 140.363 721.254 139.889 720.432 139.577C719.611 139.265 718.735 139.121 717.856 139.154C716.978 139.186 716.115 139.395 715.319 139.767C714.522 140.139 713.809 140.667 713.22 141.32C712.07 142.65 713.93 144.57 715.16 143.32C715.577 142.852 716.099 142.489 716.683 142.259C717.266 142.03 717.896 141.941 718.52 142C720.11 142.19 721.2 143.48 722.1 144.69C724.18 147.49 726.1 150.4 728.15 153.25L730.94 157.25C731.466 157.89 731.881 158.614 732.17 159.39C732.351 160.313 732.247 161.268 731.87 162.13C730.891 164.811 729.666 167.395 728.21 169.85C722.573 179.734 714.252 187.819 704.21 193.17C702.868 193.977 701.447 194.647 699.97 195.17C698.06 195.73 696.81 193.65 695.78 192.36C693.479 189.441 691.516 186.271 689.93 182.91L687.52 184.33C689.179 186.48 690.395 188.937 691.1 191.56L692.1 189.84C689.56 190.29 686.98 190.84 684.42 191.03C683.32 191.13 683.23 190.61 683.1 189.6C682.95 188.255 682.88 186.903 682.89 185.55C682.862 182.894 683.069 180.24 683.51 177.62C683.677 176.409 683.935 175.213 684.28 174.04C684.65 172.92 685.5 172.54 686.53 172.1C695.2 168.29 704.06 164.43 710.72 157.46C714.031 153.938 716.431 149.661 717.71 145C717.721 144.773 717.654 144.55 717.521 144.366C717.388 144.183 717.196 144.05 716.978 143.989C716.759 143.929 716.527 143.944 716.318 144.033C716.109 144.123 715.937 144.28 715.83 144.48V144.46Z" fill="#343131"/>
<path d="M681.06 196.61C681.31 198.56 679.56 199.97 678.49 201.39C677.371 202.886 676.596 204.61 676.22 206.44C675.39 210.44 675.89 214.7 676.22 218.76C676.92 228.14 678.09 237.49 679.61 246.76C680.477 252.093 681.477 257.38 682.61 262.62C682.92 264.08 685.14 263.46 684.85 262C682.97 252.76 681.43 243.45 680.31 234.08C679.74 229.39 679.31 224.68 678.89 219.97C678.54 215.89 677.89 211.55 678.59 207.48C678.946 205.321 679.836 203.286 681.18 201.56C682.37 199.97 683.38 198.4 683.02 196.34C682.83 195.27 680.96 195.51 681.1 196.6L681.06 196.61Z" fill="white"/>
<path d="M704 248.69C710.73 249.55 717.47 250.26 724.22 250.89C730.97 251.52 737.73 252.26 744.49 252.5C746.04 252.55 745.98 250.28 744.49 250.13C737.75 249.44 730.97 249.13 724.22 248.55C717.47 247.97 710.74 247.32 704 246.69C702.7 246.57 702.75 248.53 704 248.69V248.69Z" fill="white"/>
</svg>
