<svg width="1157" height="697" viewBox="0 0 1157 697" fill="none" xmlns="http://www.w3.org/2000/svg">
<path d="M424.4 676.3C130.2 659.2 -105.8 347.9 50.8 167.2C172.2 27.1 334.1 231 485.2 128.3C717.5 -29.8 1093.9 -58.5 1143.7 140.8C1193.5 340.1 1028.5 651.4 905.5 670.1C782.5 688.8 424.4 676.3 424.4 676.3Z" fill="#E7F3FE"/>
<path d="M462.5 254.4C465.6 329.1 464.8 369.6 437.6 400.7C410.4 431.8 334.1 424.1 334.1 424.1C334.1 424.1 326.6 534.1 219.9 538.8C113.3 543.5 97.9 401.8 181.5 365.5C261 330.9 286.3 320.9 313.8 235.2C338.9 157 417.3 171.9 436 204.6C454.8 237.3 462.5 254.4 462.5 254.4Z" fill="#303C60"/>
<path d="M427.5 635.8C427.5 635.8 477.8 645.7 480.4 645.1C483 644.6 538 620.2 543.7 623.8C549.4 627.4 582.6 641.4 589.9 644.6C597.2 647.7 585.7 648.8 580 648.8C574.3 648.8 541.6 635.3 538 637.9C534.4 640.5 566.5 645.7 566.5 647.8C566.5 649.9 480.4 669.6 475.2 669.6C470 669.6 430.1 666 430.1 666L427.5 635.8Z" fill="#E38540"/>
<path d="M385.7 360.9C412.8 366.2 428.8 394.9 434 420C439.2 445.1 385.7 360.9 385.7 360.9Z" fill="#6791C9"/>
<path d="M340.3 341.6C340.3 341.6 288.1 376.6 260.1 393.8C232.1 410.9 270.2 595.4 279.6 663.9C288.9 732.4 450.9 670.1 450.9 670.1C450.9 670.1 440 612.5 454 519.9C464 453.5 427.3 412 406.3 383.2C353.2 310.4 340.3 341.6 340.3 341.6Z" fill="#75A1DE"/>
<path d="M289 394.5C348.9 467.7 369.2 481.4 354.4 530.7C342.7 569.6 338.8 583.6 336.5 596.9C334.2 610.1 447.8 588.3 447.8 588.3L447 631.1C447 631.1 357.5 673.9 313.9 682.5C270.3 691.1 243.1 680.9 243.1 680.9L289 394.5Z" fill="#6791C9"/>
<path d="M1039.5 687.6H330.3C325.2 687.6 321 683.4 321 678.3C321 673.2 325.2 669 330.3 669H1039.5C1044.6 669 1048.8 673.2 1048.8 678.3C1048.8 683.5 1044.6 687.6 1039.5 687.6Z" fill="#2E5B9A"/>
<path d="M359.5 267.9L332.5 347.8C332.5 347.8 362.1 428 387 410.1C395.5 404 383.9 355.6 383.9 355.6L402.1 290.7L359.5 267.9Z" fill="#F09959"/>
<path d="M273.4 391.4C236.1 395.5 232.9 445.9 215.8 530C198.7 614.1 203.8 669.6 211.9 680.2C231.4 705.9 450.1 616.4 477.3 617.1C496.1 617.6 480.4 586 480.4 586L271.8 617.9C271.8 617.9 301.4 520.6 301.4 470.8C301.4 421 287.4 389.9 273.4 391.4Z" fill="#F09959"/>
<path d="M467.2 587.6C489 582.2 520.9 569.7 527.1 575.1C533.3 580.5 559 619.5 567.6 630.4C576.2 641.3 563.7 632.7 554.4 624.2C545.1 615.6 537.3 611 537.3 611C537.3 611 525.6 621.9 514.7 628.1C503.8 634.3 499.9 621.9 481.2 618.8C462.5 615.7 415.8 632 415.8 632L467.2 587.6Z" fill="#F09959"/>
<path d="M277.5 385.2C254.7 386.2 237 405.4 230.8 435C224.6 464.6 206.4 558.5 206.4 558.5C206.4 558.5 202.8 561.1 240.7 567.8C278.6 574.5 309.7 566.8 309.7 566.8C309.7 566.8 317.5 513.3 315.4 476.5C313.3 439.7 305 404.9 291.5 392.9C278.1 381 277.5 385.2 277.5 385.2Z" fill="#75A1DE"/>
<path d="M383.9 355.6L402.1 290.7L359.5 267.9L353 287.1C351.6 351.5 368.1 373.1 379.2 381C382.7 383.5 385.7 381.6 388.2 377.5C386.4 365.9 383.9 355.6 383.9 355.6Z" fill="#E38540"/>
<path d="M470.3 275.4C470.3 310.1 466.2 352.7 436 351.7C389.3 350.1 359.9 313.8 359.9 279.1C359.9 244.4 384.3 216.2 414.4 216.2C444.6 216.3 470.3 240.7 470.3 275.4Z" fill="#F09959"/>
<path d="M818.9 669H643.8L715.8 510.6C717.9 506 722.5 503 727.6 503H886.5C890.2 503 892.6 506.8 891.1 510.1L818.9 669Z" fill="#9BD6E8"/>
<path d="M818.5 669H495.5C495.5 657.7 504.6 648.6 515.9 648.6H818.5V669Z" fill="#9BD6E8"/>
<path d="M886.5 503H746.5C741.4 503 736.8 506 734.7 510.6L662.7 669H818.9L891.1 510.1C892.6 506.8 890.2 503 886.5 503Z" fill="#7BCEE8"/>
<path d="M419 204.2C452.1 201.9 471.7 232.1 477.4 258.6C481.5 277.7 479.5 281.4 479.5 281.4C479.5 281.4 475.9 286.6 449.9 288.1C424 289.7 420.8 289.1 420.8 289.1L419.2 259L411.4 288.1C411.4 288.1 407.2 293.8 391.2 286C375.1 278.2 367.8 252.3 367.8 252.3C367.8 252.3 364.2 235.2 376.6 223.8C389.1 212.4 419 204.2 419 204.2Z" fill="#303C60"/>
<path d="M394.3 282.3C391.1 303.3 374.4 318.2 356.9 315.5C339.4 312.9 327.8 293.7 331 272.7C334.2 251.7 350.9 236.8 368.4 239.5C385.9 242.1 397.5 261.3 394.3 282.3Z" fill="#D54A41"/>
<path d="M381.7 281.7C378.8 301.1 365 315.2 351 313.1C337 311 328 293.5 330.9 274.1C333.8 254.7 347.6 240.6 361.6 242.7C375.6 244.8 384.6 262.3 381.7 281.7Z" fill="#F39892"/>
<path d="M360.2 277.4C358.6 288.1 352.8 296.1 347.2 295.2C341.6 294.4 338.4 285 340 274.3C341.6 263.6 347.4 255.6 353 256.5C358.7 257.4 361.9 266.7 360.2 277.4Z" fill="#F2E5DE"/>
<path d="M359.4 240C374.6 183.6 427 191.8 440.2 199.7C451.4 206.3 452.9 215.7 452.9 215.7C452.9 215.7 438.5 204 414 208.3C390.7 212.4 376.9 226.1 374.9 241.3C374 248.9 359.4 240 359.4 240Z" fill="#D54A41"/>
<path d="M126.5 422.2H126.4C125.7 422.1 125.3 421.6 125.3 420.9C126.7 406.6 133.8 392 145.4 379.6C158.5 365.6 177.2 354.6 199.3 347.7C248.7 332.4 291.8 313 318.9 229.6C319.1 229 319.8 228.6 320.4 228.8C321 229 321.4 229.7 321.2 230.3C308.8 268.6 291.8 296.5 269.4 315.6C249.6 332.4 227.4 341.5 200 350C178.2 356.7 159.9 367.5 147.1 381.2C135.9 393.2 129 407.4 127.7 421.1C127.7 421.7 127.1 422.2 126.5 422.2Z" fill="#303C60"/>
<path d="M148.8 364.6C148.4 364.6 148.1 364.4 147.9 364.1C147.5 363.6 147.6 362.8 148.1 362.4C148.3 362.2 169.4 346.1 200 339.3C258.6 326.4 298 291.1 313.8 237.4C314 236.8 314.7 236.4 315.3 236.6C315.9 236.8 316.3 237.5 316.1 238.1C306.3 271.3 287.9 297.5 261.4 316C244.3 327.9 223.8 336.5 200.5 341.7C170.5 348.3 149.8 364.2 149.6 364.3C149.4 364.5 149.1 364.6 148.8 364.6Z" fill="#303C60"/>
<path d="M900.3 347.4H742.2C740.7 347.4 740 346.2 740.5 344.7L772.6 256.6C773.1 255.1 774.8 253.9 776.3 253.9H934.4C935.9 253.9 936.6 255.1 936.1 256.6L904 344.7C903.4 346.2 901.8 347.4 900.3 347.4Z" fill="#9EC8FF"/>
<path d="M898.4 343.2H747.1C745.7 343.2 745 342.1 745.5 340.7L774.7 260.5C775.2 259.1 776.7 258 778.1 258H929.4C930.8 258 931.5 259.1 931 260.5L901.8 340.7C901.3 342.1 899.8 343.2 898.4 343.2Z" fill="white"/>
<path d="M895.7 338H753.7C752.1 338 751.3 336.7 751.9 335.2L777 266C777.6 264.4 779.3 263.2 780.8 263.2H922.8C924.4 263.2 925.2 264.5 924.6 266L899.4 335.2C898.9 336.8 897.2 338 895.7 338Z" fill="#9EC8FF"/>
<path d="M852.186 317.238C865.374 306.233 869.84 289.853 862.162 280.651C854.483 271.449 837.568 272.911 824.38 283.916C811.192 294.92 806.726 311.301 814.405 320.503C822.083 329.704 838.999 328.243 852.186 317.238Z" fill="white"/>
<path d="M860.6 300.6C856.1 312.9 842.5 322.9 830.1 322.9C817.8 322.9 811.4 312.9 815.9 300.6C820.4 288.3 834 278.3 846.4 278.3C858.7 278.3 865.1 288.3 860.6 300.6Z" fill="#9EC8FF"/>
<path d="M849.7 299.4L839.8 304.1L829.9 308.9L833.4 299.4L836.8 290L843.3 294.7L849.7 299.4Z" fill="white"/>
<path d="M661 248.2H648.5C645.9 248.2 643.7 247.1 642.4 245.3C641 243.3 640.8 240.7 641.8 238L646.3 225.5C648.1 220.7 653.2 216.9 658.1 216.9H670.6C673.2 216.9 675.4 218 676.7 219.8C678.1 221.8 678.3 224.4 677.3 227.1L672.8 239.6C671 244.5 665.9 248.2 661 248.2ZM658.2 221.8C655.4 221.8 652 224.3 650.9 227.2L646.4 239.7C646 240.9 646 241.9 646.5 242.6C647 243.3 647.9 243.5 648.6 243.5H661C663.9 243.5 667.2 241 668.3 238.1L672.8 225.6C673.2 224.4 673.2 223.4 672.7 222.7C672.2 222 671.3 221.8 670.6 221.8H658.2Z" fill="#9CD499"/>
<path d="M641.7 301.2H629.2C626.6 301.2 624.4 300.1 623.1 298.3C621.7 296.3 621.5 293.7 622.5 291L627 278.5C628.8 273.7 633.9 269.9 638.8 269.9H651.3C653.9 269.9 656.1 271 657.4 272.8C658.8 274.8 659 277.4 658 280.1L653.5 292.6C651.8 297.4 646.6 301.2 641.7 301.2ZM638.9 274.7C636.1 274.7 632.7 277.2 631.6 280.1L627.1 292.6C626.7 293.8 626.7 294.8 627.2 295.5C627.7 296.2 628.6 296.4 629.3 296.4H641.8C644.7 296.4 648 293.9 649.1 291L653.6 278.5C654 277.3 654 276.3 653.5 275.6C653 274.9 652.1 274.7 651.4 274.7H638.9Z" fill="#9CD499"/>
<path d="M622.5 354.1H610C607.4 354.1 605.2 353 603.9 351.2C602.5 349.2 602.3 346.6 603.3 343.9L607.8 331.4C609.6 326.6 614.7 322.8 619.6 322.8H632.1C634.7 322.8 636.9 323.9 638.2 325.7C639.6 327.7 639.8 330.3 638.8 333L634.3 345.5C632.5 350.3 627.3 354.1 622.5 354.1ZM619.6 327.6C616.7 327.6 613.4 330.1 612.3 333L607.8 345.5C607.4 346.7 607.4 347.7 607.9 348.4C608.4 349.1 609.3 349.3 610 349.3H622.5C625.4 349.3 628.7 346.8 629.8 343.9L634.3 331.4C634.7 330.2 634.7 329.2 634.2 328.5C633.7 327.8 632.8 327.6 632.1 327.6H619.6Z" fill="#9EC8FF"/>
<path d="M763.5 238.1H695C693.7 238.1 693 237 693.5 235.8C694 234.5 695.4 233.5 696.7 233.5H765.2C766.5 233.5 767.2 234.6 766.7 235.8C766.2 237 764.7 238.1 763.5 238.1Z" fill="#9EC8FF"/>
<path d="M760.1 247.4H691.6C690.3 247.4 689.6 246.3 690.1 245.1C690.6 243.8 692 242.8 693.3 242.8H761.8C763.1 242.8 763.8 243.9 763.3 245.1C762.8 246.4 761.3 247.4 760.1 247.4Z" fill="#9EC8FF"/>
<path d="M745.6 287.1H677.1C675.8 287.1 675.1 286 675.6 284.8C676.1 283.5 677.5 282.5 678.8 282.5H747.3C748.6 282.5 749.3 283.6 748.8 284.8C748.3 286.1 746.9 287.1 745.6 287.1Z" fill="#9EC8FF"/>
<path d="M742.2 296.4H673.7C672.4 296.4 671.7 295.3 672.2 294.1C672.7 292.8 674.1 291.8 675.4 291.8H743.9C745.2 291.8 745.9 292.9 745.4 294.1C744.9 295.4 743.5 296.4 742.2 296.4Z" fill="#9EC8FF"/>
<path d="M725.8 341.6H657.3C656 341.6 655.3 340.5 655.8 339.3C656.3 338 657.7 337 659 337H727.5C728.8 337 729.5 338.1 729 339.3C728.5 340.5 727.1 341.6 725.8 341.6Z" fill="#9EC8FF"/>
<path d="M722.4 350.9H653.9C652.6 350.9 651.9 349.8 652.4 348.6C652.9 347.3 654.3 346.3 655.6 346.3H724.1C725.4 346.3 726.1 347.4 725.6 348.6C725.1 349.9 723.7 350.9 722.4 350.9Z" fill="#9EC8FF"/>
<path d="M658.1 241.2C657.9 241.2 657.7 241.2 657.5 241.1C656.8 240.9 656.2 240.4 655.9 239.7L651.2 228C650.7 226.8 651.3 225.4 652.5 224.9C653.7 224.4 655.1 225 655.6 226.2L659.1 234.9L686.9 213.5C687.9 212.7 689.5 212.9 690.3 213.9C691.1 214.9 690.9 216.5 689.9 217.3L659.6 240.7C659.1 241.1 658.6 241.2 658.1 241.2Z" fill="#F37168"/>
<path d="M638.8 294.2C638.6 294.2 638.4 294.2 638.2 294.1C637.5 293.9 636.9 293.4 636.6 292.7L631.9 281C631.4 279.8 632 278.4 633.2 277.9C634.4 277.4 635.8 278 636.3 279.2L639.8 287.9L667.6 266.5C668.6 265.7 670.2 265.9 671 266.9C671.8 267.9 671.6 269.5 670.6 270.3L640.3 293.7C639.9 294 639.3 294.2 638.8 294.2Z" fill="#F37168"/>
<path d="M1091.8 176.6H828.7L835.5 157.9H1098.6L1091.8 176.6Z" fill="#9EC8FF"/>
<path d="M1081.6 204.6H818.5L825.3 185.9H1088.4L1081.6 204.6Z" fill="#9EC8FF"/>
<path d="M789.9 428.6H596.7C594.2 428.6 592.9 426.5 593.8 424C594.7 421.5 597.5 419.4 600.1 419.4H793.3C795.8 419.4 797.1 421.5 796.2 424C795.3 426.5 792.5 428.6 789.9 428.6Z" fill="#9EC8FF"/>
<path d="M782.5 449H589.3C586.8 449 585.5 446.9 586.4 444.4C587.3 441.9 590.1 439.8 592.7 439.8H785.9C788.4 439.8 789.7 441.9 788.8 444.4C787.8 446.9 785 449 782.5 449Z" fill="#9EC8FF"/>
<path d="M963.4 621.5C963.4 618.3 1002.4 510.3 976 440.9C957.5 392.3 954.6 333.9 954.6 333.9C954.6 333.9 918.6 385.5 942.9 464.3C957.9 512.8 964 526.2 965.3 540.5C966.6 554.8 959.5 626.1 959.5 626.1L963.4 621.5Z" fill="#9CD499"/>
<path d="M959.5 627.3C959.3 627.3 959.2 627.3 959 627.2C958.5 627 958.2 626.5 958.3 626C958.4 625.3 965.4 554.6 964.1 540.6C963.3 531.3 960.4 522.5 954.1 503.2C950.9 493.3 946.9 481 941.8 464.6C929.2 423.6 933 390.1 938.5 369.2C944.4 346.5 953.3 333.7 953.6 333.2C953.9 332.8 954.4 332.6 954.9 332.7C955.4 332.8 955.7 333.3 955.8 333.8C955.8 334.4 958.9 392.5 977.1 440.4C987 466.4 989 500.6 983 542.2C978.2 575.4 969.8 603.8 966.1 615.9C965.3 618.7 964.6 621 964.5 621.5C964.5 621.8 964.4 622 964.2 622.2L960.3 626.7C960.2 627.1 959.8 627.3 959.5 627.3ZM953.7 337.7C950.7 342.8 945 354 940.8 369.9C935.4 390.5 931.6 423.5 944.1 463.9C949.2 480.3 953.2 492.6 956.4 502.4C962.8 521.9 965.7 530.7 966.5 540.3C967.6 552.8 962.5 607.3 961 622.3L962.2 620.9C962.3 620.2 962.8 618.8 963.8 615.2C986.3 539.8 990.1 481.3 974.8 441.2C959.2 400.1 954.7 351.4 953.7 337.7Z" fill="#74B570"/>
<path d="M971.8 632.5C966 512.5 994.5 447 1052.9 395.1C1111.3 343.2 1113.9 329.6 1113.9 329.6C1113.9 329.6 1104.8 430.8 1071.1 465.8C1037.4 500.8 988.1 526.8 980.9 544.9C973.8 563.1 976.4 624 976.4 624L971.9 635V632.5H971.8Z" fill="#9CD499"/>
<path d="M964.7 642.9C964.1 641 977 530.7 1024.4 524.2C1071.7 517.7 1082.8 528.7 1115.2 523.6C1138.3 519.9 1156.1 512.6 1156.1 512.6C1156.1 512.6 1143.8 543.9 1101.6 556.7C1071.8 565.8 1032.9 550.9 1010.2 554.8C987.5 558.7 975.8 607.3 975.8 607.3L971.9 632.6L964.7 642.9Z" fill="#9CD499"/>
<path d="M971.2 626.6C970.6 626.6 970.1 626.1 970 625.5C969.9 624.7 963.2 547.3 996.1 488C1013.1 457.4 1031.6 439.6 1049.6 422.4C1066.3 406.4 1082.1 391.3 1094.1 367.4C1094.4 366.8 1095.1 366.6 1095.7 366.9C1096.3 367.2 1096.5 367.9 1096.2 368.5C1084 392.8 1068.1 408 1051.3 424.2C1033.5 441.2 1015.1 458.9 998.3 489.2C965.8 547.8 972.4 624.6 972.5 625.4C972.6 626.1 972.1 626.6 971.4 626.7C971.2 626.6 971.2 626.6 971.2 626.6Z" fill="#74B570"/>
<path d="M967.9 611C967.8 611 967.7 611 967.6 611C967 610.8 966.6 610.1 966.8 609.5C979.2 566.7 993.5 541.7 1011.6 530.9C1027.8 521.2 1044.6 524.2 1062.4 527.3C1066.8 528.1 1071.3 528.9 1075.7 529.4C1114.3 534.5 1133.2 525.1 1133.4 525C1134 524.7 1134.7 524.9 1135 525.5C1135.3 526.1 1135.1 526.8 1134.5 527.1C1133.7 527.5 1114.9 536.9 1075.4 531.8C1070.9 531.2 1066.4 530.4 1062 529.6C1044.7 526.5 1028.3 523.6 1012.8 532.9C995.2 543.4 981.3 567.9 969 610.1C968.9 610.7 968.4 611 967.9 611Z" fill="#74B570"/>
<path d="M1029.9 444.7C1029.5 444.7 1029.2 444.5 1028.9 444.2C1028.5 443.7 1028.6 442.9 1029.1 442.5C1029.3 442.3 1052.4 424.7 1084.4 418.6C1085.1 418.5 1085.7 418.9 1085.8 419.6C1085.9 420.3 1085.5 420.9 1084.8 421C1053.3 427 1030.7 444.3 1030.5 444.4C1030.4 444.6 1030.1 444.7 1029.9 444.7Z" fill="#74B570"/>
<path d="M993.2 496.9C993 496.9 992.8 496.8 992.6 496.7C992 496.4 991.8 495.6 992.2 495.1C1009.1 466.6 1028.9 459.4 1072 445.9C1072.6 445.7 1073.3 446.1 1073.5 446.7C1073.7 447.3 1073.3 448 1072.7 448.2C1030.2 461.5 1010.7 468.6 994.2 496.3C994 496.7 993.6 496.9 993.2 496.9Z" fill="#74B570"/>
<path d="M982.7 672.4H953.7C943.5 672.4 934.7 665.1 932.8 655.1L923.5 606.3H1013L1003.7 655.1C1001.7 665.2 993 672.4 982.7 672.4Z" fill="#F39892"/>
<path d="M1010.7 618.7H926.4C925.1 618.7 924 617.6 924 616.3C924 615 925.1 613.9 926.4 613.9H1010.7C1012 613.9 1013.1 615 1013.1 616.3C1013.1 617.6 1012 618.7 1010.7 618.7Z" fill="#D54A41"/>
</svg>
